<?xml version="1.0" encoding="UTF-8"?>
<svg id="Layer_1" xmlns="http://www.w3.org/2000/svg" xmlns:xlink="http://www.w3.org/1999/xlink" version="1.1" viewBox="0 0 587.56 962.98">
  <!-- Generator: Adobe Illustrator 29.3.0, SVG Export Plug-In . SVG Version: 2.1.0 Build 146)  -->
  <defs>
    <style>
      .st0 {
        fill: none;
      }

      .st1 {
        fill: #1a3c34;
      }

      .st2 {
        clip-path: url(#clippath);
      }
    </style>
    <clipPath id="clippath">
      <rect class="st0" width="587.56" height="962.98"/>
    </clipPath>
  </defs>
  <g class="st2">
    <path class="st1" d="M508.69,730.68c.17-1.33.33-2.66.67-3.99l7.14-40.53c1.66-9.63,4.15-17.11,7.48-22.43,3.32-5.32,6.98-8.81,10.96-10.3,1.83-.67,3.49-.67,4.98-.16,1.49.5,2.82,1.49,3.98,3.16,1,1.66,1.83,3.82,2.33,6.64.5,2.66.5,5.98.16,9.8-.16,2.65-.5,5.15-1,7.47l-7.14,40.37c-.83,4.82-1.99,9.14-3.32,12.96-1.33,3.65-2.66,6.98-4.32,9.63-1.66,2.66-3.32,4.98-5.15,6.64-1.83,1.66-3.65,2.83-5.65,3.49-1.83.67-3.32.67-4.98.33-1.66-.33-2.82-1.49-3.99-3.16-1.16-1.66-1.83-3.82-2.32-6.64-.5-2.66-.5-5.98-.16-9.8,0-1.16.16-2.32.33-3.65M497.73,755.43c.66,5.81,1.66,10.3,3.49,13.79,1.66,3.49,3.99,5.65,6.64,6.81,2.66,1.16,5.81.99,9.31-.34,5.15-1.83,9.97-5.98,14.28-12.29,4.32-6.31,8.14-14.12,11.46-23.42,3.32-9.3,6.14-19.77,8.47-31.4,2.33-11.63,3.99-23.59,5.15-36.21.66-7.97.83-14.78.16-20.6-.66-5.65-1.66-10.3-3.49-13.79-1.66-3.49-3.99-5.65-6.65-6.81-2.66-1.16-5.81-1-9.3.17-5.15,1.83-9.97,5.98-14.29,12.29-4.32,6.31-8.14,14.12-11.63,23.42-3.49,9.3-6.15,19.77-8.47,31.4-2.33,11.63-3.99,23.76-5.15,36.21-.66,7.97-.83,14.78-.17,20.6M439.09,780.35c.66,5.15,1.83,9.13,3.49,12.13,1.66,2.99,3.82,4.82,6.48,5.48,2.49.83,5.48.5,8.8-.67,3.82-1.33,7.31-3.66,10.47-6.81,3.16-3.16,6.15-7.14,8.8-11.79,2.49-4.65,4.65-9.97,6.48-15.95,1.66-5.98,2.82-12.46,3.49-19.27.67-7.81.17-14.12-1.33-19.1-1.66-4.82-4.49-8.3-8.8-10.13l-8.81-4.15c-2.16-1-3.65-2.49-4.48-4.65-.83-1.99-1.16-4.82-.83-8.14.17-2.99.83-5.65,1.5-8.14.83-2.49,1.66-4.65,2.65-6.48,1-1.83,2.16-3.32,3.49-4.65,1.32-1.16,2.49-2,3.99-2.49,3.65-1.33,6.14-.83,7.97,1.5,1.83,2.32,2.16,6.81,1.66,13.29l11.46-4.15c.67-6.81.67-12.46,0-17.11-.66-4.65-1.66-8.31-3.32-11.13-1.66-2.66-3.66-4.49-6.15-5.32-2.49-.83-5.32-.5-8.47.66-3.33,1.16-6.48,3.32-9.47,6.48-2.99,3.16-5.65,6.81-7.97,11.13-2.33,4.32-4.15,9.14-5.81,14.62-1.5,5.31-2.49,10.8-3.16,16.61-.67,7.97-.33,14.95,1.33,20.76,1.66,5.82,4.32,9.63,8.64,11.29l9.14,3.49c3.99,1.66,5.82,5.65,5.15,12.13-.33,3.49-.83,6.64-1.83,9.47-.83,2.82-1.99,5.31-3.32,7.48-1.33,2.16-2.82,3.99-4.48,5.48-1.66,1.5-3.32,2.49-5.15,3.16-1.67.67-3.33.83-4.65.67-1.33-.17-2.49-1-3.49-2.32-.83-1.33-1.5-3.33-1.99-5.98-.33-2.65-.33-6.15,0-10.3l-11.46,4.15c-.67,7.64-.67,14.12,0,19.27M389.91,773.87c.17-1.33.34-2.66.67-3.99l7.14-40.54c1.66-9.63,4.15-17.11,7.47-22.42,3.32-5.32,6.98-8.8,10.96-10.3,1.83-.67,3.49-.67,4.98-.17,1.5.5,2.83,1.49,3.99,3.15.99,1.66,1.83,3.82,2.33,6.65.5,2.66.5,5.98.17,9.8-.17,2.66-.5,5.15-1,7.48l-7.14,40.37c-.83,4.82-1.99,9.14-3.32,12.96-1.33,3.65-2.65,6.98-4.32,9.64-1.66,2.65-3.32,4.98-5.15,6.64-1.83,1.66-3.65,2.82-5.65,3.49-1.83.66-3.49.66-4.98.33-1.49-.33-2.82-1.49-3.98-3.15-1.16-1.67-1.83-3.82-2.33-6.65-.5-2.65-.5-5.98-.17-9.8,0-1.16.17-2.33.33-3.65M379.12,798.62c.67,5.81,1.66,10.3,3.49,13.79,1.66,3.49,3.99,5.65,6.65,6.81,2.66,1.16,5.82.99,9.3-.33,5.15-1.83,9.97-5.98,14.29-12.29,4.32-6.31,8.14-14.12,11.46-23.43,3.32-9.3,6.15-19.77,8.47-31.4,2.33-11.62,3.99-23.59,5.15-36.21.67-7.97.83-14.78.17-20.6-.66-5.65-1.66-10.3-3.49-13.79-1.66-3.49-3.99-5.65-6.64-6.81-2.66-1.16-5.81-.99-9.3.17-5.15,1.83-9.96,5.98-14.29,12.29-4.32,6.31-8.14,14.12-11.46,23.42-3.32,9.3-6.14,19.77-8.47,31.4-2.33,11.63-3.99,23.75-5.15,36.21-.67,7.97-.67,14.78-.17,20.6M354.87,722.04l-20.6,117.45,11.47-4.15,20.6-117.45,17.44-6.31,3.99-22.76-46.35,16.94-3.99,22.76,17.44-6.31v-.17ZM270.98,841.65c.66,5.15,1.83,9.13,3.49,12.13,1.66,2.99,3.82,4.65,6.48,5.48,2.65.83,5.48.5,8.8-.67,3.82-1.33,7.31-3.65,10.63-6.81,3.32-3.16,6.15-7.14,8.81-11.8,2.66-4.65,4.65-9.97,6.48-15.95,1.66-5.98,2.82-12.46,3.49-19.27.67-7.81.17-14.12-1.33-19.1-1.66-4.82-4.49-8.3-8.8-10.13l-8.81-4.15c-2.16-1-3.65-2.49-4.48-4.65-.83-2-1.16-4.82-.83-8.14.17-2.99.83-5.65,1.49-8.14.83-2.49,1.66-4.65,2.66-6.48,1-1.83,2.16-3.32,3.49-4.65,1.33-1.33,2.66-2,3.99-2.49,3.65-1.33,6.15-.83,7.97,1.49,1.83,2.33,2.16,6.81,1.66,13.29l11.46-4.15c.67-6.81.67-12.46,0-17.11-.66-4.65-1.66-8.31-3.32-11.13-1.66-2.66-3.66-4.49-6.15-5.32-2.49-.83-5.31-.5-8.47.66-3.32,1.16-6.48,3.32-9.47,6.48-2.99,3.16-5.65,6.81-7.97,11.13-2.32,4.32-4.15,9.14-5.81,14.62-1.5,5.32-2.66,10.8-3.16,16.45-.67,7.97-.34,14.95,1.16,20.76,1.5,5.82,4.32,9.63,8.64,11.29l9.14,3.49c3.99,1.66,5.82,5.65,5.15,12.13-.34,3.49-1,6.64-1.83,9.47-.83,2.83-1.99,5.31-3.32,7.48-1.33,2.16-2.82,3.99-4.48,5.48-1.66,1.49-3.32,2.49-5.15,3.16-1.66.67-3.32.83-4.65.67-1.33-.17-2.49-1-3.49-2.33-.99-1.33-1.5-3.32-1.83-5.98-.33-2.66-.33-6.15,0-10.3l-11.46,4.15c-.67,7.64-.67,14.12,0,19.27M221.97,835c.17-1.33.33-2.66.66-3.99l7.14-40.54c1.66-9.63,4.16-17.11,7.48-22.42,3.32-5.32,6.98-8.81,10.96-10.3,1.83-.66,3.49-.66,4.98-.17,1.5.5,2.83,1.49,3.99,3.15,1,1.66,1.83,3.82,2.33,6.65.5,2.66.5,5.98.17,9.8-.17,2.66-.5,5.15-1,7.47l-7.14,40.37c-.83,4.82-1.99,9.14-3.32,12.95-1.33,3.66-2.66,6.98-4.32,9.64-1.66,2.66-3.32,4.98-5.15,6.64-1.83,1.66-3.66,2.82-5.65,3.49-1.83.67-3.32.67-4.98.33-1.49-.5-2.82-1.49-3.99-3.15-1-1.67-1.83-3.82-2.32-6.65-.5-2.65-.5-5.98-.17-9.8,0-1.16.17-2.33.33-3.65M211.01,859.75c.5,5.81,1.66,10.3,3.49,13.79,1.66,3.49,3.99,5.65,6.65,6.81,2.65,1.16,5.81.99,9.3-.33,5.15-1.83,9.97-5.98,14.29-12.29,4.32-6.31,8.14-14.12,11.46-23.43,3.32-9.3,6.15-19.77,8.47-31.4,2.33-11.63,3.99-23.59,5.15-36.21.67-7.97.67-14.78.17-20.6-.66-5.65-1.83-10.3-3.49-13.79-1.66-3.49-3.99-5.65-6.64-6.81-2.66-1.16-5.81-.99-9.3.17-5.15,1.83-9.96,5.98-14.29,12.29-4.32,6.31-8.14,14.12-11.46,23.42-3.32,9.3-6.14,19.77-8.47,31.4-2.32,11.63-3.99,23.75-5.15,36.21-.67,7.97-.67,14.78,0,20.6M150.87,879.36c.33,6.15,1.16,11.13,2.66,14.95,1.33,3.82,3.15,6.64,5.48,8.14,2.33,1.49,4.99,1.83,7.97.67,5.98-2.16,10.96-8.97,14.95-20.27l-1.83,12.62,11.13-3.99,13.46-76.41-23.76,8.64-3.99,22.59,12.46-4.49-1,5.98c-1.66,9.8-4.15,17.28-7.14,22.59s-6.31,8.64-9.63,9.8c-1.66.66-3.16.5-4.65-.33-1.33-.83-2.49-2.16-3.32-3.99-.83-1.83-1.5-4.32-1.83-7.31-.34-2.99-.34-6.31,0-9.96.16-1.99.5-4.32.83-6.65l6.98-39.7c1.49-8.8,3.82-15.94,6.81-21.59,2.99-5.65,6.48-9.14,10.47-10.63,3.49-1.33,6.15-.66,7.81,2,1.66,2.66,2.16,7.47,1.49,14.78l11.46-4.15c.66-6.98.66-13.12,0-17.94-.67-4.82-1.83-8.81-3.49-11.63-1.66-2.82-3.65-4.82-6.14-5.65-2.49-.83-5.15-.67-8.14.33-4.98,1.83-9.64,5.81-13.96,12.13-4.15,6.31-7.97,13.95-11.3,23.09-3.32,9.14-5.98,19.43-8.14,30.57-2.16,11.29-3.82,22.76-4.82,34.55-.66,7.81-.83,14.79-.5,20.93M109.51,921.22l3.99-22.59-29.9,10.8,6.64-37.71,25.75-9.46,3.99-22.59-25.75,9.3,5.98-34.39,29.9-10.8,3.99-22.76-41.2,14.95-24.58,140.21,41.36-15.12-.17.17ZM40.57,836.33l8.47-2.99c3.99-1.5,6.98-.66,8.97,2.49,1.99,2.99,2.66,8.14,1.99,15.12,0,1.33-.33,2.49-.5,3.49-.17,1-.33,2.33-.67,3.82l-6.64,38.54c-1.49,8.31-3.65,14.95-6.98,20.43-3.16,5.32-6.98,8.8-11.46,10.47l-9.8,3.49,16.61-94.69v-.17ZM30.1,950.12c5.81-2.16,11.13-6.31,15.61-12.46,4.49-6.15,8.47-13.62,11.63-22.59,3.32-8.97,5.98-19.1,8.14-30.4,2.16-11.3,3.65-23.09,4.82-35.72.5-6.48.67-12.29.33-17.61-.33-5.31-1.16-9.63-2.66-13.29-1.49-3.49-3.49-5.98-6.15-7.31-2.65-1.33-6.14-1.33-10.3.33l-18.44,6.65-24.58,140.2,21.59-7.81Z"/>
    <path class="st1" d="M552.55,492.3h.33l-2.16,52.83-15.95,5.81,17.78-58.47v-.17ZM519.16,604.27l9.3-31.4,21.1-7.64-.83,28.24,11.63-4.15,3.32-132.39-11.96,4.32-45.51,147.68,12.79-4.65h.17ZM446.73,630.68l20.1-115.29h.33l-8.64,110.97,15.61-5.65,31.9-119.6h.33l-20.43,115.29,11.3-4.15,24.58-140.04-19.77,7.14-30.9,117.45h-.33l8.47-109.14-18.94,6.97-24.59,140.04,10.96-3.99ZM423.31,639.15l3.99-22.59-29.9,10.8,6.64-37.71,25.75-9.3,3.98-22.59-25.75,9.3,5.98-34.39,29.9-10.8,3.99-22.76-41.2,14.95-24.58,140.21,41.36-15.12h-.16ZM331.61,672.54l18.94-107.98h.33v101.17l16.44-5.98,24.59-140.04-11.46,4.15-18.78,107.98h-.33v-101l-16.28,5.98-24.59,140.04,11.46-4.15-.33-.17ZM305.2,682.17l24.59-140.04-11.47,4.16-24.58,140.03,11.46-4.15ZM246.56,693.8c3.16,7.31,8.3,9.63,15.12,7.14,6.81-2.49,12.62-8.31,17.28-17.61,4.65-9.3,8.31-21.1,10.96-35.72l-11.63,4.15c-1.66,8.64-3.66,14.95-5.98,19.1-2.33,4.15-4.98,6.65-8.31,7.97-1.66.67-3.16.5-4.65-.33-1.33-.83-2.49-2.16-3.32-3.99-.83-1.83-1.49-4.32-1.83-7.31-.33-2.99-.33-6.31,0-9.97.17-1.99.5-4.32.83-6.64l6.98-39.7c1.49-8.64,3.82-15.78,6.65-21.43,2.82-5.65,6.31-9.14,10.13-10.63,3.32-1.16,5.82-.5,7.31,2.16,1.5,2.66,2,7.64,1.5,14.62l11.46-4.15c.67-6.65.5-12.46,0-17.28-.5-4.82-1.66-8.97-3.32-11.8-1.49-2.99-3.65-4.98-5.98-5.98-2.49-.99-5.15-.83-8.14.17-4.98,1.83-9.47,5.81-13.62,12.12-4.16,6.31-7.81,13.96-11.13,23.09-3.32,9.13-5.98,19.43-8.14,30.73-2.16,11.29-3.82,22.76-4.82,34.39-1.49,17.27-.67,29.57,2.66,36.71M202.04,719.72l3.99-22.59-29.9,10.8,6.65-37.7,25.75-9.31,3.99-22.59-25.75,9.3,5.98-34.39,29.9-10.8,3.99-22.76-41.2,14.95-24.59,140.21,41.36-15.12h-.16ZM133.1,634.83l8.48-2.99c3.98-1.5,6.97-.66,8.8,2.49,1.99,2.99,2.66,8.14,1.99,15.12,0,1.33-.34,2.49-.5,3.49-.17.99-.33,2.33-.66,3.82l-6.65,38.54c-1.33,8.3-3.65,14.95-6.98,20.43-3.16,5.32-6.98,8.8-11.46,10.47l-9.8,3.49,16.61-94.69.16-.16ZM122.63,748.62c5.81-2.16,11.13-6.31,15.61-12.46,4.49-6.15,8.47-13.62,11.63-22.59,3.32-8.97,5.98-19.1,8.14-30.4,2.16-11.3,3.65-23.09,4.82-35.72.5-6.48.66-12.29.33-17.61-.33-5.31-1.16-9.63-2.65-13.29-1.5-3.49-3.49-5.98-6.15-7.31-2.66-1.33-6.14-1.33-10.3.33l-18.44,6.64-24.59,140.21,21.6-7.81Z"/>
    <path class="st1" d="M567.66,319.04h.33l-2.16,52.82-15.95,5.81,17.77-58.47v-.17ZM534.27,431.01l9.3-31.4,21.1-7.64-.83,28.24,11.63-4.32,3.32-132.4-11.96,4.32-45.52,147.68,12.79-4.65.17.17ZM503.37,332.33l13.46-4.82c1.99-.66,3.32-.5,4.15.67.83,1.16,1,3.65.66,7.47,0,1.49-.33,2.99-.66,4.65l-2.65,14.29c-.5,2.33-.83,4.32-1.33,5.81-.5,1.5-1,2.99-1.66,3.99-.66,1.16-1.5,1.99-2.49,2.66-1,.66-2.16,1.33-3.49,1.83l-13.29,4.82,7.31-41.53v.17ZM482.77,449.78l9.3-53.16,6.31-2.32,4.65,48.01,11.96-4.32-5.15-48.17c6.31-4.65,11.46-11.79,15.28-21.59,3.82-9.8,6.48-21.43,7.64-34.89.99-10.96.17-18.77-2.33-23.42-2.49-4.82-6.31-6.31-11.46-4.32l-23.25,8.47-24.59,140.04,11.46-4.15.17-.17ZM454.04,350.27l-20.6,117.45,11.46-4.15,20.6-117.44,17.44-6.31,3.99-22.76-46.35,16.95-3.99,22.76,17.44-6.31v-.17ZM370.15,469.88c.66,5.15,1.83,9.13,3.49,12.13,1.66,2.99,3.82,4.82,6.48,5.48,2.66.83,5.48.5,8.81-.67,3.82-1.33,7.31-3.65,10.46-6.81,3.32-3.16,6.15-7.14,8.81-11.8,2.66-4.65,4.65-9.97,6.48-15.95,1.66-5.98,2.82-12.46,3.49-19.27.67-7.81.16-14.29-1.33-19.1-1.66-4.82-4.49-8.31-8.81-10.14l-8.8-4.15c-2.16-.99-3.66-2.66-4.49-4.65-.83-1.99-1.16-4.82-.83-8.14.17-2.99.83-5.65,1.5-8.14.83-2.49,1.66-4.65,2.66-6.48,1-1.83,2.16-3.33,3.49-4.65,1.33-1.17,2.66-1.99,3.99-2.49,3.65-1.33,6.15-.83,7.97,1.49,1.83,2.32,2.16,6.81,1.66,13.29l11.46-4.15c.66-6.81.66-12.46,0-17.11-.67-4.65-1.66-8.47-3.33-11.13-1.66-2.66-3.65-4.48-6.14-5.32-2.49-.83-5.32-.5-8.47.67-3.32,1.16-6.48,3.32-9.47,6.48-2.99,3.16-5.65,6.81-7.97,11.13-2.32,4.32-4.15,9.3-5.82,14.62-1.49,5.32-2.66,10.8-3.16,16.45-.66,7.97-.33,14.78,1.33,20.6,1.66,5.81,4.32,9.63,8.64,11.29l9.14,3.49c3.99,1.66,5.82,5.65,5.15,12.13-.34,3.49-1,6.64-1.83,9.46-.83,2.83-1.99,5.32-3.32,7.48-1.33,2.16-2.82,3.99-4.48,5.48-1.66,1.49-3.32,2.49-5.15,3.15-1.66.67-3.32.83-4.65.67-1.33-.17-2.49-1-3.49-2.33-.99-1.33-1.49-3.32-1.99-5.98-.33-2.65-.33-6.15,0-10.3l-11.47,4.15c-.67,7.64-.67,14.12,0,19.27M321.14,463.4c.17-1.33.33-2.66.66-3.99l7.15-40.53c1.66-9.64,4.15-17.11,7.47-22.43,3.33-5.32,6.98-8.8,10.96-10.3,1.83-.66,3.49-.66,4.98-.17,1.5.5,2.83,1.5,3.99,3.16,1.16,1.66,1.83,3.82,2.32,6.64.5,2.66.5,5.98.17,9.8-.17,2.66-.5,5.15-1,7.47l-7.14,40.37c-.83,4.82-1.99,9.14-3.32,12.96-1.33,3.65-2.66,6.97-4.32,9.63-1.66,2.66-3.32,4.98-5.15,6.64-1.83,1.66-3.65,2.83-5.65,3.49-1.83.67-3.49.67-4.98.34-1.49-.34-2.82-1.5-3.99-3.16-1.16-1.66-1.83-3.82-2.32-6.64-.5-2.66-.5-5.98-.17-9.8,0-1.16.17-2.33.33-3.65M310.18,488.15c.67,5.82,1.66,10.3,3.49,13.79,1.66,3.49,3.99,5.65,6.64,6.81,2.66,1.16,5.82,1,9.3-.33,5.15-1.83,9.96-5.98,14.29-12.29,4.32-6.31,8.14-14.12,11.46-23.42,3.32-9.3,6.15-19.77,8.48-31.4,2.32-11.63,3.98-23.59,5.15-36.22.67-7.97.67-14.78.17-20.6-.66-5.65-1.66-10.3-3.49-13.79-1.66-3.49-3.99-5.65-6.65-6.81-2.65-1.16-5.81-1-9.3.16-5.15,1.83-9.97,5.98-14.29,12.29-4.32,6.31-8.14,14.12-11.46,23.42-3.32,9.3-6.15,19.77-8.47,31.4-2.32,11.63-3.99,23.75-5.15,36.21-.66,7.97-.66,14.78-.17,20.6M237.92,538.98l20.1-115.28h.33l-8.64,110.97,15.62-5.65,31.9-119.6h.33l-20.43,115.28,11.13-4.15,24.58-140.04-19.77,7.14-30.9,117.44h-.33l8.47-109.14-18.94,6.98-24.59,140.04,10.97-3.99h.17Z"/>
    <path class="st1" d="M554.9,53.55c11.94,0,21.71-9.64,21.71-21.58s-9.63-21.58-21.71-21.58-21.71,9.64-21.71,21.58,9.64,21.58,21.71,21.58"/>
    <polygon class="st1" points="364.25 10.2 309.43 131.92 334.94 154.04 374.84 60 374.84 195.56 406.59 195.56 406.59 10.2 364.25 10.2"/>
    <path class="st1" d="M538.61,195.75h-109.21v-30.72l40.66-52.61c.89-1.38,1.95-2.74,3.4-4.61,2.57-3.31,6.86-8.85,13.78-19.06,3.89-5.75,10.78-26.22,5.92-38.11-1.3-3.18-3.85-7.08-12.09-8.98-3.65-.85-6.42-.41-9.23,1.44-10.97,7.22-17.85,31.38-19.46,41.94l-31.56-4.45c.7-4.68,7.53-46.24,33.07-63.1,10.24-6.76,22.19-8.83,34.56-5.97,21.03,4.86,30.29,17.74,34.36,27.7,10.17,24.9-1.86,56.14-8.91,66.56-7.48,11.06-12.16,17.09-14.96,20.7-.72.92-1.52,1.97-1.82,2.39l-.41.71-27.19,35.19h69.12v30.99ZM497.21,128.67v.03s0-.02,0-.03"/>
  </g>
</svg>