<?xml version="1.0" encoding="UTF-8"?>
<svg id="Layer_2" data-name="Layer 2" xmlns="http://www.w3.org/2000/svg" viewBox="0 0 971.8 127.3">
  <defs>
    <style>
      .cls-1 {
        fill: #fff;
      }
    </style>
  </defs>
  <g id="Layer_2-2" data-name="Layer 2">
    <g id="Layer_1-2" data-name="Layer 1-2">
      <g>
        <path class="cls-1" d="M.7,32.3h5.9l5.7,16.3h0l5.7-16.3h5.9v21.3h-4.1v-15.6h0l-5.6,15.6h-3.8l-5.6-15.6h0v15.6H.7v-21.3Z"/>
        <path class="cls-1" d="M28,32.3h4.4v21.3h-4.4s0-21.3,0-21.3Z"/>
        <path class="cls-1" d="M36.5,32.3h5.5l7.6,16h0v-16h4.1v21.3h-5.5l-7.7-15.9h0v15.9h-4.1v-21.3h.1Z"/>
        <path class="cls-1" d="M58,32.3h4.4v21.3h-4.4v-21.3Z"/>
        <path class="cls-1" d="M65.5,46.9l4.1-.7c0,2.8,2.1,4.6,4.7,4.6s3.7-1.3,3.7-2.9-.9-2.2-3.2-2.8l-2.9-.8c-3.9-1-5.6-2.9-5.6-6.1s2.8-6.5,7.4-6.5,7.1,2.5,7.4,6.3l-4,.8c0-2.2-1.5-3.7-3.5-3.7s-3.1,1.2-3.1,2.7.9,2.2,3,2.8l2.9.8c4,1,5.8,2.9,5.8,6.1s-3,6.8-8.1,6.8-8.5-2.9-8.7-7.3l.1-.1Z"/>
        <path class="cls-1" d="M88.7,36h-5.7v-3.8h15.8v3.8h-5.7v17.5h-4.4s0-17.5,0-17.5Z"/>
        <path class="cls-1" d="M101.7,32.3h13.2v3.6h-8.9v5.2h7.7v3.2h-7.7v5.7h9.2v3.6h-13.5s0-21.3,0-21.3ZM108,29.6l2.2-3.9,1,.6-2.2,3.9-1-.6Z"/>
        <path class="cls-1" d="M128.9,51.2l-1.1-3.9c-.4-1.2-1.3-2.1-2.4-2.1h-2.8v8.4h-4.4v-21.3h8.9c4.6,0,7.7,2.6,7.7,6.5s-1.8,4.9-4.7,5.6h0c1.1.5,1.6,1.4,1.9,2.5l.8,3c.2.6.5,1.1,1,1.1s.9-.3,1.4-.9l1.3,2.2c-1,1.1-2.4,1.8-4,1.8s-3.2-1.2-3.6-3h0v.1ZM127,41.9c2.1,0,3.7-1.2,3.7-3.1s-1.5-3.2-3.7-3.2h-4.2v6.2h4.2v.1Z"/>
        <path class="cls-1" d="M139.1,32.3h4.4v21.3h-4.4v-21.3Z"/>
        <path class="cls-1" d="M146.9,43c0-6.8,4.2-11.3,10.6-11.3s10.6,4.5,10.6,11.3-4.2,11.3-10.6,11.3-10.6-4.5-10.6-11.3ZM163.7,43c0-4.6-2.5-7.6-6.2-7.6s-6.2,3-6.2,7.6,2.5,7.6,6.2,7.6,6.2-3,6.2-7.6Z"/>
        <path class="cls-1" d="M178.3,32.3h7.7c6.8,0,10.5,3.8,10.5,10.6s-3.8,10.7-10.5,10.7h-7.7v-21.3ZM186,50c4,0,6.2-2.5,6.2-7s-2.2-7.1-6.2-7.1h-3.4v14.1h3.4Z"/>
        <path class="cls-1" d="M204.2,32.3h5.4l6.9,21.3h-4.5l-1.4-4.5h-7.6l-1.4,4.5h-4.4l6.9-21.3h.1ZM210,45.8l-3-9.8h0l-3.1,9.8h6.1Z"/>
        <path class="cls-1" d="M225.4,43c0-7,3.8-11.3,9.8-11.3s8,2.9,8.8,7.9l-4.1.8c-.5-3.2-2.3-4.9-4.7-4.9s-5.4,2.9-5.4,7.6,2.3,7.5,6,7.5,5.2-2.2,5.7-5.8l4.1.8c-.7,5.4-4.5,8.8-9.8,8.8s-10.4-4.3-10.4-11.3h0v-.1Z"/>
        <path class="cls-1" d="M248.3,46.2v-13.9h4.4v13.7c0,2.6,1.6,4.5,4.1,4.5s4.1-1.8,4.1-4.5v-13.7h4.4v13.9c0,5-3.2,8-8.5,8s-8.5-3.1-8.5-8h0Z"/>
        <path class="cls-1" d="M269.1,32.3h4.4v17.5h8v3.8h-12.4v-21.3h0Z"/>
        <path class="cls-1" d="M286,36h-5.7v-3.8h15.8v3.8h-5.7v17.5h-4.4v-17.5h0Z"/>
        <path class="cls-1" d="M298.8,46.2v-13.9h4.4v13.7c0,2.6,1.6,4.5,4.1,4.5s4.1-1.8,4.1-4.5v-13.7h4.4v13.9c0,5-3.2,8-8.5,8s-8.5-3.1-8.5-8Z"/>
        <path class="cls-1" d="M330.1,51.2l-1-3.9c-.4-1.2-1.3-2.1-2.4-2.1h-2.8v8.4h-4.4v-21.3h8.9c4.6,0,7.7,2.6,7.7,6.5s-1.8,4.9-4.7,5.6h0c1.1.5,1.6,1.4,1.9,2.5l.8,3c.2.6.5,1.1,1,1.1s.9-.3,1.4-.9l1.3,2.2c-1,1.1-2.4,1.8-4,1.8s-3.2-1.2-3.6-3h0l-.1.1ZM328.2,41.9c2.1,0,3.7-1.2,3.7-3.1s-1.5-3.2-3.7-3.2h-4.2v6.2h4.2v.1Z"/>
        <path class="cls-1" d="M346.2,32.3h5.4l6.9,21.3h-4.5l-1.4-4.5h-7.6l-1.4,4.5h-4.4l6.9-21.3h.1ZM352,45.8l-3-9.8h0l-3.1,9.8h6.1Z"/>
        <path class="cls-1" d="M361,57c2.1.6,3.8-1,3.8-3.5-2,1-3.7-.2-3.7-2s1-2.3,2.3-2.3,2.6,1.3,2.6,3.7c0,3.8-2.3,6-5.4,5.2l.3-1.1h.1Z"/>
      </g>
      <g>
        <path class="cls-1" d="M0,115.9c0-6.9,4-11.3,10.2-11.3s7.6,2.6,8.7,6.5l-4.1,1c-.8-2.2-2.6-3.7-4.7-3.7-3.5,0-5.8,2.9-5.8,7.5s2.5,7.6,6.4,7.6,5.8-2.3,5.9-5.8h-8.3v-3.1h12.5v12h-3.3l-.4-3.5h0c-1.5,2.6-4.3,4.1-7.4,4.1-5.9,0-9.7-4.4-9.7-11.3Z"/>
        <path class="cls-1" d="M23.8,115.9c0-6.8,4.2-11.3,10.6-11.3s10.6,4.5,10.6,11.3-4.2,11.3-10.6,11.3-10.6-4.5-10.6-11.3ZM40.7,115.9c0-4.6-2.5-7.6-6.2-7.6s-6.2,3-6.2,7.6,2.5,7.6,6.2,7.6,6.2-3,6.2-7.6Z"/>
        <path class="cls-1" d="M46.1,105.3h4.6l5,17h0l5-17h4.5l-6.8,21.3h-5.4l-6.8-21.3h-.1Z"/>
        <path class="cls-1" d="M67.9,105.3h13.2v3.6h-8.9v5.2h7.7v3.2h-7.7v5.7h9.2v3.6h-13.5v-21.3h0Z"/>
        <path class="cls-1" d="M95.1,124.2l-1.1-3.9c-.4-1.2-1.3-2.1-2.4-2.1h-2.8v8.4h-4.4v-21.3h8.9c4.6,0,7.7,2.6,7.7,6.5s-1.8,4.9-4.7,5.6h0c1.1.5,1.6,1.4,1.9,2.5l.8,3c.2.6.5,1.1,1,1.1s.9-.3,1.3-.9l1.3,2.2c-1,1.1-2.4,1.8-4,1.8s-3.2-1.2-3.6-3l.1.1ZM93.1,114.9c2.1,0,3.7-1.2,3.7-3.1s-1.5-3.2-3.7-3.2h-4.2v6.2h4.2v.1Z"/>
        <path class="cls-1" d="M105.2,105.3h5.5l7.6,16h0v-16h4.1v21.3h-5.5l-7.7-15.9h0v15.9h-4.1v-21.3h.1Z"/>
        <path class="cls-1" d="M125.9,115.9c0-6.8,4.2-11.3,10.6-11.3s10.6,4.5,10.6,11.3-4.2,11.3-10.6,11.3-10.6-4.5-10.6-11.3ZM142.8,115.9c0-4.6-2.5-7.6-6.2-7.6s-6.2,3-6.2,7.6,2.5,7.6,6.2,7.6,6.2-3,6.2-7.6Z"/>
        <path class="cls-1" d="M157.4,105.3h7.7c6.8,0,10.5,3.8,10.5,10.7s-3.8,10.7-10.5,10.7h-7.7v-21.4ZM165.1,123c4,0,6.2-2.5,6.2-7.1s-2.2-7.1-6.2-7.1h-3.4v14.1h3.4v.1Z"/>
        <path class="cls-1" d="M178.3,115.9c0-6.8,4.2-11.3,10.6-11.3s10.6,4.5,10.6,11.3-4.2,11.3-10.6,11.3-10.6-4.5-10.6-11.3ZM195.2,115.9c0-4.6-2.5-7.6-6.2-7.6s-6.2,3-6.2,7.6,2.5,7.6,6.2,7.6,6.2-3,6.2-7.6Z"/>
        <path class="cls-1" d="M209.7,105.3h13.2v3.6h-8.9v5.2h7.7v3.2h-7.7v5.7h9.2v3.6h-13.5v-21.3h0Z"/>
        <path class="cls-1" d="M225.4,119.9l4.1-.7c0,2.8,2.1,4.6,4.7,4.6s3.7-1.3,3.7-2.9-.9-2.2-3.1-2.8l-2.9-.8c-3.9-1.1-5.6-2.9-5.6-6.1s2.8-6.5,7.4-6.5,7.1,2.5,7.4,6.3l-4,.8c0-2.2-1.5-3.7-3.5-3.7s-3.1,1.2-3.1,2.7.9,2.2,3,2.8l2.9.8c4,1.1,5.9,2.9,5.9,6.1s-3,6.8-8.1,6.8-8.5-2.9-8.7-7.3h0l-.1-.1Z"/>
        <path class="cls-1" d="M248.6,109.1h-5.7v-3.8h15.8v3.8h-5.7v17.6h-4.4v-17.6h0Z"/>
        <path class="cls-1" d="M264.7,105.3h5.4l6.9,21.3h-4.5l-1.4-4.5h-7.6l-1.4,4.5h-4.4l6.9-21.3h.1ZM270.5,118.8l-3-9.8h0l-3.1,9.8h6.1Z"/>
        <path class="cls-1" d="M279.8,105.3h7.7c6.8,0,10.5,3.8,10.5,10.7s-3.8,10.7-10.5,10.7h-7.7v-21.4ZM287.5,123c4,0,6.2-2.5,6.2-7.1s-2.2-7.1-6.2-7.1h-3.4v14.1h3.4v.1Z"/>
        <path class="cls-1" d="M300.7,115.9c0-6.8,4.2-11.3,10.6-11.3s10.6,4.5,10.6,11.3-4.2,11.3-10.6,11.3-10.6-4.5-10.6-11.3ZM317.6,115.9c0-4.6-2.5-7.6-6.2-7.6s-6.2,3-6.2,7.6,2.5,7.6,6.2,7.6,6.2-3,6.2-7.6Z"/>
        <path class="cls-1" d="M332.1,105.3h7.7c6.8,0,10.5,3.8,10.5,10.7s-3.8,10.7-10.5,10.7h-7.7v-21.4ZM339.8,123c4,0,6.2-2.5,6.2-7.1s-2.2-7.1-6.2-7.1h-3.4v14.1h3.4v.1Z"/>
        <path class="cls-1" d="M353.1,115.9c0-6.8,4.2-11.3,10.6-11.3s10.6,4.5,10.6,11.3-4.2,11.3-10.6,11.3-10.6-4.5-10.6-11.3ZM370,115.9c0-4.6-2.5-7.6-6.2-7.6s-6.2,3-6.2,7.6,2.5,7.6,6.2,7.6,6.2-3,6.2-7.6Z"/>
        <path class="cls-1" d="M395.1,124.2l-1-3.9c-.4-1.2-1.3-2.1-2.4-2.1h-2.8v8.4h-4.4v-21.3h8.9c4.6,0,7.7,2.6,7.7,6.5s-1.8,4.9-4.7,5.6h0c1.1.5,1.6,1.4,1.9,2.5l.8,3c.2.6.5,1.1,1,1.1s.9-.3,1.4-.9l1.3,2.2c-1,1.1-2.4,1.8-4,1.8s-3.2-1.2-3.6-3h0l-.1.1ZM393.1,114.9c2.1,0,3.7-1.2,3.7-3.1s-1.5-3.2-3.7-3.2h-4.2v6.2h4.2v.1Z"/>
        <path class="cls-1" d="M405.2,105.3h4.4v21.3h-4.4v-21.3Z"/>
        <path class="cls-1" d="M413,115.9c0-6.8,4.2-11.3,10.6-11.3s10.6,4.5,10.6,11.3-4.2,11.3-10.6,11.3-10.6-4.5-10.6-11.3ZM429.8,115.9c0-4.6-2.5-7.6-6.2-7.6s-6.2,3-6.2,7.6,2.5,7.6,6.2,7.6,6.2-3,6.2-7.6Z"/>
        <path class="cls-1" d="M443.7,115.9c0-6.9,4-11.3,10.2-11.3s7.6,2.6,8.7,6.5l-4.1,1c-.8-2.2-2.5-3.7-4.7-3.7-3.5,0-5.8,2.9-5.8,7.5s2.5,7.6,6.4,7.6,5.8-2.3,5.9-5.8h-8.3v-3.1h12.5v12h-3.3l-.4-3.5h0c-1.5,2.6-4.3,4.1-7.4,4.1-5.9,0-9.8-4.4-9.8-11.3h.1Z"/>
        <path class="cls-1" d="M478.8,124.2l-1-3.9c-.4-1.2-1.3-2.1-2.4-2.1h-2.8v8.4h-4.4v-21.3h8.9c4.6,0,7.7,2.6,7.7,6.5s-1.8,4.9-4.7,5.6h0c1.1.5,1.6,1.4,1.9,2.5l.8,3c.2.6.5,1.1,1,1.1s.9-.3,1.4-.9l1.3,2.2c-1,1.1-2.4,1.8-4,1.8s-3.2-1.2-3.6-3h0l-.1.1ZM476.8,114.9c2.1,0,3.7-1.2,3.7-3.1s-1.5-3.2-3.7-3.2h-4.2v6.2h4.2v.1Z"/>
        <path class="cls-1" d="M494.8,105.3h5.4l6.9,21.3h-4.5l-1.4-4.5h-7.6l-1.4,4.5h-4.4l6.9-21.3h.1ZM500.6,118.8l-3-9.8h0l-3.1,9.8h6.1Z"/>
        <path class="cls-1" d="M509.9,105.3h5.5l7.6,16h0v-16h4.1v21.3h-5.5l-7.7-15.9h0v15.9h-4.1v-21.3h.1Z"/>
        <path class="cls-1" d="M531.3,105.3h7.7c6.8,0,10.5,3.8,10.5,10.7s-3.8,10.7-10.5,10.7h-7.7v-21.4ZM539,123c4,0,6.2-2.5,6.2-7.1s-2.2-7.1-6.2-7.1h-3.4v14.1h3.4v.1Z"/>
        <path class="cls-1" d="M553,105.3h13.2v3.6h-8.9v5.2h7.7v3.2h-7.7v5.7h9.2v3.6h-13.5v-21.3h0Z"/>
        <path class="cls-1" d="M576.4,105.3h7.7c6.8,0,10.5,3.8,10.5,10.7s-3.8,10.7-10.5,10.7h-7.7v-21.4ZM584.1,123c4,0,6.2-2.5,6.2-7.1s-2.2-7.1-6.2-7.1h-3.4v14.1h3.4v.1Z"/>
        <path class="cls-1" d="M597.4,115.9c0-6.8,4.2-11.3,10.6-11.3s10.6,4.5,10.6,11.3-4.2,11.3-10.6,11.3-10.6-4.5-10.6-11.3ZM614.2,115.9c0-4.6-2.5-7.6-6.2-7.6s-6.2,3-6.2,7.6,2.5,7.6,6.2,7.6,6.2-3,6.2-7.6Z"/>
        <path class="cls-1" d="M628.8,105.3h5.5l7.6,16h0v-16h4.1v21.3h-5.5l-7.7-15.9h0v15.9h-4.1v-21.3h.1Z"/>
        <path class="cls-1" d="M649.5,115.9c0-6.8,4.2-11.3,10.6-11.3s10.6,4.5,10.6,11.3-4.2,11.3-10.6,11.3-10.6-4.5-10.6-11.3ZM666.4,115.9c0-4.6-2.5-7.6-6.2-7.6s-6.2,3-6.2,7.6,2.5,7.6,6.2,7.6,6.2-3,6.2-7.6Z"/>
        <path class="cls-1" d="M684.7,124.2l-1-3.9c-.4-1.2-1.3-2.1-2.4-2.1h-2.8v8.4h-4.4v-21.3h8.9c4.6,0,7.7,2.6,7.7,6.5s-1.8,4.9-4.7,5.6h0c1.1.5,1.6,1.4,1.9,2.5l.8,3c.2.6.5,1.1,1,1.1s.9-.3,1.3-.9l1.3,2.2c-1,1.1-2.4,1.8-4,1.8s-3.2-1.2-3.6-3v.1ZM682.8,114.9c2.1,0,3.7-1.2,3.7-3.1s-1.5-3.2-3.7-3.2h-4.2v6.2h4.2v.1Z"/>
        <path class="cls-1" d="M698.7,109.1h-5.7v-3.8h15.8v3.8h-5.7v17.6h-4.4v-17.6h0Z"/>
        <path class="cls-1" d="M711.7,105.3h13.2v3.6h-8.9v5.2h7.7v3.2h-7.7v5.7h9.2v3.6h-13.5v-21.3h0Z"/>
        <path class="cls-1" d="M740.6,105.3h5.4l6.9,21.3h-4.5l-1.3-4.5h-7.7l-1.3,4.5h-4.4l6.9-21.3h0ZM746.4,118.8l-3-9.8h0l-3.1,9.8h6.1Z"/>
        <path class="cls-1" d="M755.7,105.3h8.7c4.5,0,7.6,2.7,7.6,6.8s-3,6.8-7.4,6.8h-4.5v7.7h-4.3v-21.3h-.1ZM763.7,115.5c2.2,0,3.8-1.4,3.8-3.4s-1.5-3.4-3.8-3.4h-3.8v6.8h3.8Z"/>
        <path class="cls-1" d="M785.5,124.2l-1-3.9c-.4-1.2-1.3-2.1-2.4-2.1h-2.8v8.4h-4.4v-21.3h8.9c4.6,0,7.7,2.6,7.7,6.5s-1.8,4.9-4.7,5.6h0c1.1.5,1.6,1.4,1.9,2.5l.8,3c.2.6.5,1.1,1,1.1s.9-.3,1.3-.9l1.3,2.2c-1,1.1-2.4,1.8-4,1.8s-3.2-1.2-3.6-3v.1ZM783.5,114.9c2.1,0,3.7-1.2,3.7-3.1s-1.5-3.2-3.7-3.2h-4.2v6.2h4.2v.1Z"/>
        <path class="cls-1" d="M795.6,105.3h13.2v3.6h-8.9v5.2h7.7v3.2h-7.7v5.7h9.2v3.6h-13.5v-21.3h0Z"/>
        <path class="cls-1" d="M811.2,119.9l4.1-.7c0,2.8,2.1,4.6,4.7,4.6s3.7-1.3,3.7-2.9-.9-2.2-3.2-2.8l-2.9-.8c-3.9-1.1-5.6-2.9-5.6-6.1s2.8-6.5,7.4-6.5,7.1,2.5,7.4,6.3l-4,.8c0-2.2-1.5-3.7-3.5-3.7s-3.1,1.2-3.1,2.7.9,2.2,3,2.8l2.9.8c4,1.1,5.8,2.9,5.8,6.1s-3,6.8-8.1,6.8-8.5-2.9-8.7-7.3h0l.1-.1Z"/>
        <path class="cls-1" d="M831,105.3h13.2v3.6h-8.9v5.2h7.7v3.2h-7.7v5.7h9.2v3.6h-13.5v-21.3h0Z"/>
        <path class="cls-1" d="M847.6,105.3h5.5l7.6,16h0v-16h4.1v21.3h-5.5l-7.7-15.9h0v15.9h-4.1v-21.3h.1Z"/>
        <path class="cls-1" d="M873.6,109.1h-5.7v-3.8h15.8v3.8h-5.7v17.6h-4.4v-17.6h0Z"/>
        <path class="cls-1" d="M889.6,105.3h5.4l6.9,21.3h-4.5l-1.3-4.5h-7.7l-1.3,4.5h-4.4l6.9-21.3h0ZM895.4,118.8l-3-9.8h0l-3.1,9.8h6.1Z"/>
        <path class="cls-1" d="M904.7,105.3h5.9l5.7,16.3h0l5.7-16.3h5.9v21.3h-4.1v-15.6h0l-5.5,15.6h-3.8l-5.5-15.6h0v15.6h-4.1v-21.3h-.2Z"/>
      </g>
      <g>
        <path class="cls-1" d="M807.5,57c2.1.6,3.8-1,3.8-3.5-2,1-3.7-.2-3.7-2s1-2.3,2.3-2.3,2.6,1.3,2.6,3.7c0,3.8-2.3,6-5.4,5.2l.3-1.1h.1Z"/>
        <path class="cls-1" d="M821.8,46.9l4.1-.7c0,2.8,2.1,4.6,4.7,4.6s3.7-1.3,3.7-2.9-.9-2.2-3.2-2.8l-2.9-.8c-3.9-1-5.6-2.9-5.6-6.1s2.8-6.5,7.4-6.5,7.1,2.5,7.4,6.3l-4,.8c0-2.2-1.5-3.7-3.5-3.7s-3.1,1.2-3.1,2.7.9,2.2,3,2.8l2.9.8c4,1,5.8,2.9,5.8,6.1s-3,6.8-8.1,6.8-8.5-2.9-8.7-7.3h0l.1-.1Z"/>
        <path class="cls-1" d="M846.6,32.3h5.4l6.9,21.3h-4.5l-1.3-4.5h-7.7l-1.3,4.5h-4.4l6.9-21.3h0ZM852.4,45.8l-3-9.8h0l-3.1,9.8h6.1Z"/>
        <path class="cls-1" d="M861.7,32.3h4.4v17.5h8v3.8h-12.4v-21.3Z"/>
        <path class="cls-1" d="M876.9,32.3h4.4v21.3h-4.4v-21.3Z"/>
        <path class="cls-1" d="M885.4,32.3h5.5l7.6,16h0v-16h4.1v21.3h-5.5l-7.7-15.9h0v15.9h-4.1v-21.3h.1Z"/>
        <path class="cls-1" d="M906.2,43c0-6.8,4.2-11.3,10.6-11.3s10.6,4.5,10.6,11.3-4.2,11.3-10.6,11.3-10.6-4.5-10.6-11.3ZM923,43c0-4.6-2.5-7.6-6.2-7.6s-6.2,3-6.2,7.6,2.5,7.6,6.2,7.6,6.2-3,6.2-7.6Z"/>
        <path class="cls-1" d="M941.4,51.2l-1-3.9c-.4-1.2-1.3-2.1-2.4-2.1h-2.8v8.4h-4.4v-21.3h8.9c4.6,0,7.7,2.6,7.7,6.5s-1.8,4.9-4.7,5.6h0c1.1.5,1.6,1.4,1.9,2.5l.8,3c.2.6.5,1.1,1,1.1s.9-.3,1.3-.9l1.3,2.2c-1,1.1-2.4,1.8-4,1.8s-3.2-1.2-3.6-3v.1ZM939.4,41.9c2.1,0,3.7-1.2,3.7-3.1s-1.5-3.2-3.7-3.2h-4.2v6.2h4.2v.1Z"/>
        <path class="cls-1" d="M958.3,32.3h13.2v3.6h-8.9v5.2h7.7v3.2h-7.7v5.7h9.2v3.6h-13.5v-21.3Z"/>
      </g>
      <g>
        <rect class="cls-1" x="399.6" width="73.1" height="17.7"/>
        <polygon class="cls-1" points="528.6 53.7 551.2 53.7 553 47.4 539.2 47.4 540.4 43.2 551.6 43.2 553.4 36.9 542.2 36.9 543.3 33 556.5 33 558.3 26.7 536.3 26.7 528.6 53.7"/>
        <path class="cls-1" d="M519.3,26.7h-13l-7.7,27h8.9l2.4-8.4h5.9c6.9-.4,10.9-4,12.5-9.5,1.5-5.5-1.2-9.1-8.9-9.1h-.1ZM519.8,35.9c-.6,2.2-2.2,3.1-4,3.2h-4.1l1.6-6h2.5c1.9,0,4.6.3,3.9,2.9h0l.1-.1Z"/>
        <path class="cls-1" d="M428.3,34c0-1.3-1.1-2.1-2.3-2.1h-6.1l-1.4,5h6.5c1.9,0,3.3-1.2,3.3-2.9h0Z"/>
        <path class="cls-1" d="M415.3,48h5.9c3.3,0,3.8-1.7,4.1-2.2.2-.4.4-1.7,0-2.3s-.5-1.3-3.1-1.3h-5.3l-1.7,5.8h.1Z"/>
        <path class="cls-1" d="M458.5,34.4c0-.5-.1-2.4-2.8-2.4h-5.8c0,.2-1.7,6-1.7,6h5.9c3.3,0,4.4-2.4,4.4-3.7h0v.1Z"/>
        <path class="cls-1" d="M464.7,30.8c.9,2.5.2,5-.7,6.6-.8,1.4-2.9,3.5-5.2,4.1,1.2,0,2.7,1,2.8,3.2,0,.6.4,9.1.4,9.1h-7.4l-.3-7.5c0-.9.2-2.9-3.1-2.9h-4.5l-2.9,10.2h-7.9l7.8-27h-17c2.3,0,5.5.6,7.2,2.6,2,2.4,1.4,5.4.6,7.1-.2.3-1.4,2.5-3.6,3.5.2,0,1.9,1.2,2.5,3,.8,2.6-.2,6.3-2,7.9-1.4,1.2-2.6,2.8-9.5,2.8h-16l7.8-27h-14.1v46.3h73.1V26.6h-15.2c2.4,0,5.9.7,7.2,4.3h0v-.1Z"/>
        <path class="cls-1" d="M639.2,26c-1.4,0-2.7.1-4,.4-6.7,1.5-12.1,6.5-14.1,13.5-2.6,9.2,1.6,14.5,10,14.5s2.8-.2,4.1-.4c6.4-1.5,12-6.3,14.2-13.9,2-7.1-.5-14.1-10.2-14.1h0ZM640.5,40.1c-1,3.5-2.7,6.4-5.3,7.4-.7.2-1.4.4-2.2.4-4.2,0-4.1-4.3-3.1-7.8.8-2.8,2.5-6,5.2-7.1.6-.2,1.3-.4,2.1-.4,3.9,0,4.3,3.8,3.2,7.5h.1Z"/>
        <polygon class="cls-1" points="587.6 30.3 588.7 26.7 587.6 26.7 563.9 26.7 561.9 33.8 569.8 33.8 564.2 53.7 573 53.7 578.7 33.8 586.6 33.8 587.6 30.3"/>
        <path class="cls-1" d="M712.8,34.9c0-.2.2-.3.2-.5.6-2,.6-3.7-.2-4.9-1.2-1.9-4.1-2.8-9.6-2.8h-12.8l-7.7,27h8.8l2.7-9.4h2.7c1.7,0,2.7.2,3.2.6.9.7.8,1.9.2,4.1,0,.2,0,.3-.2.5-.6,2.1-.8,3.7-.7,4.2h9l.2-.8c-1,0-.6-1.2.4-4.7,1.5-5.4,0-6.1-2.5-7.2,3.2-.8,5.3-3.2,6.2-6.1h.1ZM704.5,35.8c-.5,1.7-1.9,2.4-4.2,2.6h-4.3l1.5-5.4h4.1c2,0,3.3.9,2.8,2.8h.1Z"/>
        <path class="cls-1" d="M773.9,34.5c.7-4.7-1.7-8.5-9.1-8.5s-12.6,2.9-14.2,8.6c-3,10.3,13.4,7.5,12.2,11.6-.3,1.3-2,2-4.2,2s-1.8-.2-2.3-.7c-.6-.5-1-1.2-.9-2.1h-8.5c-1.2,4.8,2.3,9,9.4,9s13.5-3.1,15.3-9.3c2.8-9.8-13.4-7.3-12.3-11.3.2-1,1.3-1.5,3.2-1.5s1.6.2,2.1.5.9.9.7,1.8h8.5l.1-.1Z"/>
        <path class="cls-1" d="M729.7,26.7l-.6.9-16.2,25.3-.5.8h8.7l2-3.5h8.8v3.5h8.8l-2-27h-9ZM729.1,44.5h-2.8l2.8-5,2.7-4.8v9.7h-2.7v.1Z"/>
        <path class="cls-1" d="M607,26.7h-12.7l-6.7,23.4-1,3.5h8.9l2.6-9.4h2.7c1.7,0,2.7.2,3.2.6.9.7.8,1.9.1,4.1,0,.2,0,.3-.1.5-.5,2.1-.8,3.7-.7,4.2h9l.2-.8c-1.1,0-.6-1.2.4-4.7,1.5-5.4,0-6.1-2.5-7.2,3.4-.9,5.5-3.5,6.4-6.6,1.5-5.2-.8-7.7-9.8-7.7h0v.1ZM608.2,35.8c-.5,1.7-1.9,2.4-4.2,2.6h-4.3l1.5-5.4h4.1c2,0,3.3.9,2.8,2.8h.1Z"/>
        <path class="cls-1" d="M672.4,26.7h-13l-7.7,27h15c6.1-.3,10.6-2.5,12.2-8,.8-3,0-5.5-2.7-6.2,2-1.1,4.4-3.1,5.2-5.9,1.5-5.4-2.9-6.8-9-6.8h0v-.1ZM670.9,44.9c-.5,1.9-2.1,2.4-4.1,2.5h-4.3l1.4-5h2.9c2.8,0,4.8.1,4.1,2.5h0ZM672.7,35.2c-.4,1.5-1.9,2.3-3.7,2.3h-3.6l1.3-4.5h3.1c1.9,0,3.6,0,3,2.2h-.1Z"/>
      </g>
    </g>
  </g>
</svg>