<svg width="190" height="208" viewBox="0 0 190 208" fill="none" xmlns="http://www.w3.org/2000/svg">
<g clip-path="url(#clip0_3_6850)">
<path d="M91.6983 154.296C92.5276 155.317 93.3953 156.307 93.7485 157.627C93.8022 157.842 94.0172 157.927 94.2399 157.857C94.8619 157.681 95.0308 157.773 94.8312 158.333C94.6545 158.809 94.8542 158.932 95.1844 159.039C95.7603 159.224 96.0521 159.676 96.2978 160.175C96.3208 160.221 96.4283 160.283 96.4283 160.29C96.0367 160.912 96.674 160.882 96.8583 161.173C97.2883 161.841 98.0331 161.925 98.5323 162.156C99.2541 162.486 99.5689 162.885 99.5996 163.522C99.6149 163.821 99.6917 163.852 99.8914 163.89C100.69 164.067 100.713 164.497 100.114 165.241C101.074 164.804 101.419 165.494 101.834 165.87C102.533 166.5 102.633 166.592 103.562 166.446C103.777 166.415 104.161 166.262 104.207 166.715C104.253 167.198 104.061 167.528 103.416 167.597C103.877 167.851 104.46 167.897 104.33 168.634C104.913 167.82 105.75 168.457 106.426 168.127C106.695 167.996 107.148 168.327 106.902 168.825C106.817 168.994 106.841 169.117 106.971 169.217C107.232 169.409 107.232 169.163 107.324 169.017C107.555 168.657 107.739 169.002 107.892 169.102C108.568 169.547 109.09 170.215 109.881 170.491C112.653 172.556 115.579 174.359 118.696 175.871C120.432 176.846 122.205 177.729 124.079 178.404C124.832 179.011 125.791 179.179 126.651 179.54C129.032 180.546 131.451 181.459 133.854 182.411C135.536 183.171 137.263 183.808 139.029 184.329C139.283 184.529 139.575 184.66 139.905 184.667C140.496 184.951 141.103 185.197 141.748 185.327C142.753 185.703 143.744 186.11 144.758 186.44C149.526 188.014 154.287 189.587 159.178 190.738C162.511 191.529 165.812 192.45 169.191 193.049C169.337 193.102 169.475 193.171 169.621 193.202C173.399 193.885 177.169 194.561 180.947 195.244C180.586 196.986 179.772 198.559 179.135 200.202C178.16 202.704 176.992 205.106 175.534 207.378C175.165 207.954 174.789 207.985 174.197 207.985C173.176 207.985 172.462 207.325 171.594 207.002C168.508 205.843 165.29 205.452 162.019 205.444C157.489 205.429 152.958 205.268 148.443 204.999C144.404 204.761 140.411 204.101 136.426 203.364C132.963 202.727 129.469 202.213 126.037 201.422C123.511 200.839 121.015 200.141 118.55 199.358C115.325 198.337 111.962 197.915 108.714 197.024C104.706 195.927 100.721 194.729 96.7278 193.594C91.6368 192.151 86.592 190.562 81.647 188.674C78.2376 187.369 74.8437 185.934 72.0794 183.454C70.152 181.728 68.3168 179.901 66.7197 177.836C62.6731 172.594 59.2945 166.914 56.0464 161.173C53.8196 157.243 52.3453 152.984 51.2012 148.609C50.5869 146.252 49.6962 143.981 49.1663 141.594C48.6903 139.429 48.3601 137.242 48.2526 135.023C48.0913 131.585 48.314 128.146 48.3601 124.708C48.3985 121.868 48.6058 119.036 48.5905 116.204C48.5751 114.009 48.5905 111.813 48.7747 109.626C49.128 105.62 49.988 101.705 50.8403 97.7831C51.1398 96.3862 51.3548 94.9739 51.3778 93.5463C51.4162 91.2821 51.8692 89.0793 52.3376 86.8842C53.4894 87.3293 54.6489 87.7822 55.8007 88.2273C59.5248 89.9236 62.4581 92.5792 64.9152 95.8028C66.3281 97.6526 67.3186 99.7479 68.3169 101.836C68.4167 102.219 68.4627 102.618 68.6163 102.979C69.9908 106.326 70.774 109.849 71.6417 113.341C72.2406 115.766 72.5862 118.261 73.4155 120.632C73.8608 122.574 74.4444 124.47 75.2123 126.312C75.2814 126.78 75.3198 127.264 75.6576 127.64C75.8649 128.523 76.2105 129.359 76.6328 130.165C77.2317 131.454 77.8691 132.736 78.4296 134.041C79.7964 137.211 81.5241 140.174 83.413 143.052C83.4591 143.443 83.7202 143.704 83.9582 143.981C84.703 145.308 85.6398 146.49 86.5306 147.718C87.1679 148.593 87.6363 149.599 88.5193 150.282C88.8725 151.057 89.4792 151.633 90.0397 152.254C90.0781 152.454 90.2317 152.546 90.3929 152.638C90.7538 153.245 91.1761 153.805 91.6983 154.296Z" fill="#BA3368"/>
<path d="M45.3192 47.2107C45.2578 47.1185 45.1963 47.0341 45.1426 46.942C45.204 47.0341 45.2654 47.1185 45.3192 47.2107Z" fill="#020202"/>
<path d="M100.383 58.7852C100.383 58.7852 100.368 58.7852 100.36 58.7852C100.36 58.7852 100.36 58.7931 100.36 58.8011L100.383 58.7773V58.7852Z" fill="white"/>
<path d="M156.659 35.5135C156.575 34.7613 156.398 34.0092 156.567 33.2647C156.629 32.973 156.483 33.0574 156.375 33.0344C154.502 32.666 152.636 32.2515 150.754 31.9368C148.343 31.53 145.963 31.0158 143.69 30.0948C142.761 29.7187 142.607 29.7724 142.362 30.7472C142.331 30.8623 142.346 30.9928 142.323 31.1079C141.878 33.6407 140.941 36.0354 139.943 38.3687C139.029 40.5024 137.77 42.5057 136.165 44.248C134.837 45.9979 133.155 47.3641 131.42 48.6843C128.133 51.1711 124.363 52.6831 120.508 53.9956C118.12 54.8092 115.909 55.9758 113.674 57.1194C111.187 58.3858 108.499 58.9308 105.773 59.3452C103.669 59.6676 101.565 59.9746 99.4228 59.7981C98.6703 59.7597 97.9178 59.7213 97.0501 59.683C98.2173 59.3759 99.2846 59.092 100.36 58.8157C100.398 58.4856 100.651 58.7466 100.782 58.6775C103.032 57.7795 105.381 57.1041 107.478 55.8376C109.228 54.7785 110.703 53.3585 112.346 52.1612C113.075 51.4704 113.805 50.772 114.527 50.0812C115.94 48.7303 117.306 47.3334 118.765 46.0517C121.399 43.7337 123.902 41.3007 125.991 38.4608C126.859 37.2788 127.55 35.9817 128.294 34.7306C129.331 32.996 130.061 31.2077 130.383 29.2198C130.506 28.4599 130.276 27.9303 129.784 27.4161C127.634 25.1749 124.878 24.4227 121.914 24.016C120.224 23.7857 118.527 23.5938 116.853 23.2945C115.817 23.1026 115.617 23.6706 115.625 24.5455C115.64 25.7352 115.763 26.9633 115.08 28.0455C115.348 28.2143 115.249 28.4139 115.172 28.6595C114.596 30.5016 113.651 32.1671 112.607 33.7712C111.793 35.0223 110.879 36.2043 109.92 37.3556C109.774 37.5244 109.658 37.6856 109.405 37.6319C108.553 38.9674 107.631 40.2415 106.579 41.4158C103.608 44.7162 100.636 48.0089 97.2114 50.8564C94.7619 52.8903 91.9899 54.364 89.0951 55.6151C86.4536 56.7587 83.9274 58.1172 81.4165 59.5141C81.0709 59.706 80.687 59.8058 80.3184 59.9516C80.1879 60.0744 80.1111 60.32 79.85 60.1665C79.9806 60.0667 80.1111 59.9593 80.2416 59.8595C80.902 58.7466 81.8618 57.8793 82.6681 56.8892C85.0638 53.9726 86.5765 50.5647 88.212 47.2183C89.5788 44.4245 90.9456 41.623 92.3201 38.8369C94.1169 35.1758 95.5298 31.3842 96.0673 27.3317C96.2746 25.7659 96.4589 24.1925 96.5203 22.596C96.6125 20.2474 96.5817 17.8911 96.8812 15.5578C96.9196 13.2936 96.8505 11.0371 96.121 8.85728C95.5144 7.06127 94.9462 5.24222 93.8712 3.62274C93.6716 3.7609 93.6024 3.89905 93.518 4.06791C93.1648 4.82009 92.9344 5.70274 92.3739 6.26304C90.6539 7.99765 88.4347 8.68075 86.0467 9.01079C84.8488 9.17964 83.6586 9.21802 82.4608 9.30245C81.5931 9.36385 80.71 9.30245 79.827 9.22569C78.0609 9.09521 76.2795 9.17197 74.5057 9.19499C74.3291 9.19499 74.1218 9.31012 73.9068 9.33315C73.4921 9.38687 73.3769 9.72459 73.3923 10.0546C73.4614 11.3671 73.7071 12.6412 74.2369 13.8616C74.5518 14.5907 74.7437 15.3736 74.9434 16.1411C75.3273 17.5994 75.4655 19.0884 75.5346 20.6005C75.6191 22.5807 75.7496 24.5455 75.7266 26.5334C75.6959 28.7593 75.4271 30.9774 75.5039 33.2033C75.5193 33.7789 75.4578 34.3315 75.3427 34.9072C74.7821 37.6779 73.9912 40.3873 73.2234 43.1044C73.1696 43.2809 73.2925 43.8028 72.7626 43.703C71.895 48.0089 71.3344 52.4221 68.1631 56.1523C68.1631 55.1008 68.1247 54.2489 68.1631 53.4123C68.3167 50.5033 67.7178 47.6481 67.4874 44.7699C67.3108 42.521 67.0497 40.2799 66.8655 38.031C66.4815 33.3644 66.3971 28.6902 66.2665 24.0083C66.2051 21.7901 65.8288 19.5796 65.5601 17.3692C65.4065 16.1104 64.869 15.765 63.5944 16.0106C62.6652 16.1872 61.7361 16.3407 60.807 16.5019C59.5324 16.947 58.1886 17.0161 56.8679 17.2157C56.2689 17.3078 55.6547 17.3231 55.0557 17.3768C53.0593 17.4382 51.0936 17.7913 49.0894 17.8604C46.8703 17.9371 44.6512 17.9218 42.4321 17.9141C41.7794 17.9141 41.5567 18.1674 41.8331 18.72C41.9483 18.9579 42.0942 19.1882 42.2555 19.4031C44.1521 21.936 46.2023 24.3613 47.8609 27.0707C48.6748 28.3985 49.3735 29.7878 49.9802 31.2384C50.4025 32.2592 50.748 33.303 51.1089 34.3392C51.6464 35.8896 52.0611 37.4707 52.3221 39.0979C52.5448 40.5408 52.6984 41.9991 52.9595 43.4344C53.2129 44.839 53.3818 46.2743 53.3434 47.6404C53.305 49.1525 53.497 50.6722 53.3127 52.2149C53.0977 53.9802 53.1437 55.7916 53.0286 57.5876C53.0823 58.2016 53.1361 59.0152 52.6523 59.2608C52.1071 59.5371 51.6618 58.8157 51.3086 58.3858C48.5596 55.0701 46.4326 51.409 45.3116 47.2183L45.3269 47.2337C45.2655 47.1416 45.204 47.0571 45.1503 46.965C44.7894 45.737 44.513 44.4859 44.0523 43.2962C43.5608 42.0221 43.2153 40.702 42.8006 39.4126C42.1633 37.4477 41.4646 35.4982 40.6122 33.6331C39.6985 31.6221 38.6542 29.6573 37.3258 27.8613C36.1202 26.2264 34.6152 25.0828 32.7186 24.3844C31.2213 23.8317 29.6779 23.5094 28.1191 23.3252C27.0594 23.2024 25.9153 22.8033 25.2396 24.4074C24.7098 25.6661 23.343 26.426 22.2449 27.3086C21.5923 27.8382 20.7399 28.1529 20.356 28.9895C23.773 29.9566 26.8598 31.4917 29.317 34.132C31.9661 36.9718 34.2313 40.0803 35.8054 43.6416C37.4026 47.249 38.8154 50.9178 39.6985 54.7785C39.8981 55.6534 39.7753 55.8069 38.9306 55.6381C35.8592 55.0317 32.7493 54.9166 29.6395 54.7094C27.9348 54.5942 26.2148 54.7554 24.5255 54.4177C21.9685 54.2796 19.4115 54.4177 16.8469 54.2642C14.5126 54.1261 12.1629 53.9035 9.81325 54.0263C9.69039 54.0263 9.56753 54.0416 9.44468 54.0186C7.58645 53.6655 5.6975 53.9495 3.8316 53.6962C3.80856 53.6962 3.77017 53.7807 3.70874 53.8728C3.88535 54.0647 4.06964 54.2489 4.23857 54.4561C5.03714 55.4385 5.65911 56.5207 5.91251 57.7641C6.19662 59.138 6.15822 60.5503 6.09679 61.9395C6.06608 62.6303 6.34251 62.9373 6.97984 63.0447C8.0702 63.2289 9.15289 63.4438 10.2356 63.6511C12.9231 64.1576 15.5876 64.7947 18.2828 65.2782C18.6283 65.3396 19.2196 65.1478 19.3578 65.7771C22.2757 66.1532 25.0016 67.1971 27.7659 68.1641C30.9909 69.2924 34.2927 70.106 37.7404 70.2441C38.9229 70.2902 40.0978 70.4897 41.2726 70.6279C41.5183 70.6279 41.7717 70.6279 42.0174 70.6279C44.1367 70.8505 46.2637 71.0654 48.3907 71.0347C50.3411 70.9963 52.0841 71.6027 53.8118 72.3625C54.1957 72.5314 54.7793 72.3472 54.9022 72.9765C55.1786 72.7463 55.5932 72.9305 55.8927 72.5928C56.0232 72.4393 56.7143 71.8176 56.8065 72.8077C56.8218 72.9996 57.0598 73.0303 57.175 72.9535C58.5649 72.0325 60.0929 73.3449 61.4904 72.6849C61.9127 72.4853 62.3044 72.6312 62.7113 72.6542C63.0031 72.6695 63.1874 72.5621 63.4408 72.4469C64.1779 72.1246 64.9535 71.618 65.8365 71.9557C66.113 72.0632 66.351 72.0171 66.6274 72.0018C67.7331 71.9404 68.6623 71.334 69.7142 71.0807C71.0964 70.7507 72.4248 70.1444 73.8607 70.106C74.4596 70.0906 75.0893 69.5764 75.6882 70.1367C75.8187 70.2595 75.98 70.2058 76.0414 70.0216C76.2334 69.4689 76.6404 69.7069 77.0243 69.7145C78.0379 69.7452 79.0054 70.3209 80.0343 70.0446C80.6179 69.8834 81.1477 69.8527 81.762 69.9602C82.6297 70.106 83.4743 70.2748 84.4495 69.9755C85.1483 69.7606 86.0774 69.868 86.899 69.7069C87.0065 69.6838 87.1294 69.7683 87.2522 69.7913C88.1506 69.9832 89.0797 70.2058 89.9628 70.0062C91.1299 69.7452 92.2203 69.231 93.3951 68.924C94.4394 68.6554 95.6373 68.7014 96.5587 67.9262C96.6278 67.8648 97.173 67.5731 97.5109 67.742C98.4016 68.1948 99.5841 67.5962 100.329 68.5479C100.352 68.5786 100.49 68.5633 100.498 68.5402C100.905 67.6729 101.181 68.5402 101.496 68.6247C101.78 68.7014 102.003 68.9393 102.348 68.8012C102.54 68.7244 102.901 68.7168 102.932 68.9086C103.086 69.9141 103.907 69.5841 104.491 69.7683C105.428 70.0676 106.326 70.5665 107.286 70.7123C108.13 70.8428 108.983 70.7354 109.528 71.5643C109.912 71.1421 109.674 70.6356 109.705 70.1674C109.728 69.799 109.758 69.5534 110.234 69.5073C114.419 69.1159 118.32 67.7036 122.121 65.992C128.279 63.2136 134.184 59.9439 140.043 56.5898C140.281 56.4517 140.534 56.3442 140.78 56.2214C141.824 55.523 142.853 54.7708 143.905 54.103C145.84 52.875 147.368 51.2248 148.896 49.5976C150.232 48.1777 151.392 46.5736 152.536 44.9848C153.91 43.0813 155.615 41.3544 156.045 38.906C156.237 37.7854 156.759 36.7109 156.629 35.5596L156.659 35.5135Z" fill="white"/>
<path d="M52.6601 80.8744C52.3683 80.8744 52.207 80.7209 52.1456 80.4522C52.1072 80.2987 52.0458 80.0838 51.8768 80.2066C50.9401 80.8514 50.2259 79.9917 49.5502 79.7154C48.7209 79.3777 48.1527 78.4797 47.6382 77.6738C47.477 77.4205 47.4232 77.1135 47.8149 77.0291C48.337 76.9139 48.3447 76.5762 48.2295 76.1925C48.0452 75.5861 48.314 75.2407 48.8208 74.9874C48.5136 74.6804 48.122 74.8032 47.7765 74.8339C44.7127 75.1409 41.6873 75.0105 38.6926 74.1739C35.1528 73.1838 31.8433 71.5566 28.2804 70.6509C27.2592 70.39 27.2668 70.3592 27.2745 71.4338C27.2976 73.1914 27.9656 74.8263 28.196 76.5455C28.5645 79.2472 28.5876 79.1781 31.3365 79.6156C33.7476 79.9994 36.1817 80.2373 38.6082 80.4522C41.4339 80.7055 44.252 81.097 47.0931 81.0586C47.5154 81.0586 47.9454 81.1584 48.3677 81.166C49.8804 81.1967 51.3931 81.2044 52.9058 81.2198C52.8981 81.1507 52.8827 81.0816 52.8751 81.0049C52.806 80.9588 52.7369 80.9051 52.6677 80.859L52.6601 80.8744Z" fill="white"/>
<path d="M126.49 175.633C126.068 175.679 125.753 175.411 125.392 175.265C125.415 174.958 125.546 174.689 125.876 174.743C126.344 174.82 126.413 175.242 126.49 175.633Z" fill="#020202"/>
<path d="M134.161 177C134.23 177.03 134.276 177.046 134.322 177.069C134.284 177.13 134.246 177.191 134.207 177.261C134.161 177.222 134.038 177.399 134.054 177.207C134.061 177.138 134.123 177.069 134.161 177Z" fill="#020202"/>
<path d="M80.3107 59.9132C80.1801 60.036 80.1034 60.2816 79.8423 60.1281C79.9728 60.0283 80.1034 59.9209 80.2339 59.8211C80.2569 59.8518 80.28 59.8825 80.3107 59.9132Z" fill="black"/>
<path d="M100.352 58.808C100.352 58.808 100.359 58.808 100.367 58.8157C100.367 58.8003 100.367 58.7926 100.375 58.785L100.352 58.808Z" fill="#020202"/>
<path d="M60.8069 16.4788C61.736 16.3177 62.6652 16.1642 63.5943 15.9876C64.8766 15.742 65.4064 16.0797 65.56 17.3461C65.8211 19.5566 66.205 21.7671 66.2664 23.9853C66.397 28.6595 66.4814 33.3414 66.8654 38.008C67.0497 40.2568 67.3107 42.498 67.4873 44.7469C67.7177 47.6251 68.3166 50.4803 68.1631 53.3892C68.117 54.2335 68.1631 55.0778 68.1631 56.1293C71.3343 52.3915 71.8949 47.9782 72.7626 43.68C72.7011 41.8763 72.5936 40.065 72.5859 38.2613C72.5629 32.8502 71.8872 27.5236 70.697 22.2583C69.8216 18.39 68.8541 14.537 67.5564 10.7761C66.5275 7.42969 65.3066 4.17537 63.4023 1.20504C62.5116 -0.260938 61.0603 -0.406769 59.7626 0.905704C58.4189 2.26423 57.7201 3.96814 57.2594 5.79485C56.0078 9.55574 55.263 13.4087 55.0403 17.3615C55.6469 17.3078 56.2535 17.2847 56.8524 17.2003C58.1732 17.0084 59.5169 16.9394 60.7916 16.4865L60.8069 16.4788Z" fill="#020202"/>
<path d="M81.4086 59.4834C83.9195 58.0942 86.4458 56.728 89.0872 55.5844C91.982 54.3333 94.754 52.8596 97.2035 50.8257C100.636 47.9782 103.607 44.6855 106.571 41.3851C107.631 40.2108 108.553 38.929 109.397 37.6012C110.81 35.2142 112.223 32.8348 113.636 30.4478C114.12 29.6342 114.588 28.8283 115.072 28.0148C115.755 26.9249 115.632 25.7045 115.617 24.5148C115.609 23.6399 115.809 23.0642 116.845 23.2638C117.137 21.8669 117.567 20.493 117.636 19.05C118.335 16.4404 117.383 14.7826 114.811 14.0381C113.183 13.5622 111.509 13.401 109.835 13.2322C107.124 12.9559 104.414 12.7947 101.795 13.8308C100.091 14.2069 98.5012 14.9438 96.8657 15.5271C96.5662 17.8604 96.5892 20.2167 96.5048 22.5653C96.4433 24.1541 96.259 25.7352 96.0517 27.301C95.5142 31.3535 94.109 35.1528 92.3046 38.8062C90.9301 41.6 89.5633 44.3938 88.1965 47.1876C86.5609 50.534 85.0482 53.9418 82.6525 56.8585C81.8386 57.8486 80.8788 58.7159 80.2261 59.8288C80.2491 59.8595 80.2721 59.8902 80.3029 59.9209C80.6714 59.7751 81.063 59.6753 81.4009 59.4834H81.4086Z" fill="#020202"/>
<path d="M24.51 54.3947C26.1993 54.7324 27.9193 54.5789 29.624 54.6863C32.7338 54.8936 35.8437 55.0087 38.9151 55.6151C39.7598 55.7839 39.8827 55.6304 39.683 54.7554C38.8 50.8948 37.3948 47.226 35.7899 43.6186C34.2081 40.0573 31.9506 36.9488 29.3015 34.1089C26.8443 31.4686 23.7575 29.9336 20.3405 28.9665C19.1043 29.4884 18.6052 30.5629 18.3441 31.7603C17.6837 34.8304 17.6684 37.8852 18.5207 40.9322C19.8568 45.7139 22.122 50.0735 24.4947 54.387L24.51 54.3947Z" fill="#020202"/>
<path d="M107.47 55.8146C105.374 57.0887 103.032 57.7565 100.774 58.6545C100.636 58.7082 100.582 58.9845 100.367 58.8233C100.275 59.3606 99.6379 59.3683 99.4229 59.7827C101.565 59.9593 103.669 59.6523 105.773 59.3299C108.499 58.9154 111.187 58.3705 113.674 57.1041C115.909 55.9681 118.12 54.7938 120.508 53.9802C124.363 52.6601 128.133 51.1557 131.42 48.6689C133.155 47.3565 134.837 45.9903 136.165 44.2326C135.988 44.1942 135.812 44.1098 135.635 44.1175C133.001 44.271 130.406 44.6624 127.98 45.76C124.67 47.2567 121.414 48.8531 117.982 50.0505C116.085 50.7106 114.22 51.432 112.338 52.1305C110.695 53.3278 109.213 54.7478 107.47 55.8069V55.8146Z" fill="#020202"/>
<path d="M52.6445 59.2301C53.1282 58.9845 53.0745 58.1709 53.0207 57.5569C51.3852 55.3618 49.7496 53.159 48.1218 50.9639C47.185 49.7051 46.4018 48.3312 45.3037 47.1876C46.4248 51.3783 48.5518 55.0394 51.3007 58.3551C51.6539 58.785 52.0993 59.5064 52.6445 59.2301Z" fill="#020202"/>
<path d="M189.823 147.872C189.693 146.905 189.746 145.807 188.618 145.362C185.992 144.334 183.404 143.129 180.555 142.891C177.868 142.668 175.165 142.614 172.47 142.499C167.632 142.292 162.787 142.1 157.949 141.885C156.59 141.824 155.231 141.678 153.887 141.471C151.699 141.141 149.549 140.619 147.33 140.45C145.648 140.327 143.959 140.174 142.3 139.751C137.716 138.585 133.262 137.011 128.747 135.622C126.344 134.878 123.91 134.118 121.798 132.79C118.243 130.564 114.803 128.154 111.578 125.445C109.075 123.342 106.502 121.331 104.468 118.721C102.433 116.112 100.92 113.241 99.7606 110.156C98.9006 107.868 98.5244 105.435 97.7028 103.14C96.2822 99.1953 95.1304 95.1735 94.5392 91.0365C93.9402 86.8995 93.1109 82.8086 92.6425 78.6563C92.7347 78.6563 92.8345 78.6332 92.9113 78.6563C96.5894 79.915 100.352 80.79 104.207 81.3119C109.751 82.0641 115.149 81.9643 120.447 79.7999C124.217 78.2648 127.634 76.3537 130.214 73.1531C132.264 70.6126 134.599 68.3254 136.349 65.5239C138.208 62.5612 139.759 59.4911 140.818 56.16C140.573 56.2828 140.319 56.3903 140.081 56.5285C134.222 59.8825 128.317 63.1599 122.159 65.9307C118.366 67.6423 114.465 69.0545 110.273 69.4459C109.789 69.492 109.766 69.7376 109.743 70.106C109.712 70.5742 109.95 71.0808 109.566 71.5029C109.021 70.674 108.169 70.7814 107.324 70.651C106.364 70.5051 105.466 70.0062 104.529 69.7069C103.945 69.5227 103.124 69.8527 102.97 68.8473C102.94 68.6631 102.579 68.6631 102.387 68.7398C102.041 68.878 101.811 68.6324 101.534 68.5633C101.22 68.4789 100.935 67.6115 100.536 68.4789C100.521 68.5019 100.39 68.5172 100.367 68.4865C99.6224 67.5348 98.4399 68.1335 97.5492 67.6806C97.2036 67.5041 96.6661 67.8034 96.597 67.8648C95.6679 68.64 94.4701 68.594 93.4334 68.8626C92.2586 69.1696 91.1682 69.6839 90.0011 69.9448C89.118 70.1444 88.1813 69.9218 87.2905 69.7299C87.1754 69.7069 87.0448 69.6225 86.9373 69.6455C86.1157 69.8067 85.1943 69.6992 84.4878 69.9141C83.5126 70.2211 82.668 70.0446 81.8003 69.8988C81.186 69.7913 80.6562 69.8297 80.0726 69.9832C79.0437 70.2595 78.0762 69.6839 77.0626 69.6532C76.6787 69.6455 76.2717 69.3999 76.0797 69.9602C76.0183 70.1444 75.8571 70.2058 75.7265 70.0753C75.1276 69.515 74.4979 70.0293 73.899 70.0446C72.4631 70.083 71.1347 70.6893 69.7525 71.0194C68.7006 71.2727 67.7715 71.879 66.6657 71.9404C66.3893 71.9558 66.159 72.0018 65.8748 71.8944C64.9918 71.549 64.2163 72.0632 63.4791 72.3856C63.2257 72.5007 63.0414 72.6005 62.7496 72.5928C62.3427 72.5775 61.9511 72.4316 61.5287 72.6235C60.1312 73.2836 58.6032 71.9711 57.2133 72.8921C57.0982 72.9689 56.8601 72.9382 56.8448 72.7463C56.7526 71.7562 56.0616 72.3779 55.931 72.5314C55.6315 72.8691 55.2169 72.6849 54.9405 72.9152C54.856 73.0456 54.7715 73.1531 54.6717 73.2605C54.7639 73.1608 54.856 73.0456 54.9405 72.9152C54.8176 72.2858 54.234 72.47 53.8501 72.3011C52.1224 71.5413 50.3717 70.9426 48.429 70.9733C46.302 71.0117 44.175 70.7968 42.0557 70.5665C43.2997 71.1345 44.6665 71.2496 45.9488 71.6718C44.3593 71.5183 42.7545 71.4185 41.3032 70.5665C40.1284 70.4361 38.9536 70.2365 37.7711 70.1828C34.3234 70.0446 31.0215 69.231 27.7965 68.1028C25.0399 67.1357 22.314 66.0918 19.3884 65.7158C19.1734 65.7234 18.9507 65.7695 18.7511 65.7311C16.0252 65.2706 13.2609 65.2706 10.5196 65.2169C7.09493 65.1478 4.13098 66.4372 1.74293 68.9317C-0.614408 71.3878 -0.514586 73.8592 1.98865 76.1848C4.65313 78.6563 7.89351 80.0608 11.2721 81.2198C18.3057 83.6299 25.6235 84.1594 32.9719 84.5048C39.0611 84.7888 45.1579 85.0651 51.2471 85.3568C52.7828 85.4335 52.7828 85.4489 52.3912 86.8611C53.543 87.3063 54.7024 87.7591 55.8542 88.2043C59.5784 89.9006 62.5116 92.5562 64.9688 95.7798C66.3816 97.6296 67.3722 99.7249 68.3704 101.813C68.4702 102.196 68.5163 102.595 68.6699 102.956C70.0443 106.303 70.8276 109.826 71.6952 113.318C72.2942 115.743 72.6397 118.238 73.469 120.609C73.9144 122.551 74.4979 124.447 75.2658 126.289C75.3349 126.757 75.3733 127.241 75.7112 127.617C75.9185 128.5 76.264 129.336 76.6864 130.142C77.2853 131.431 77.9226 132.713 78.4831 134.018C79.8499 137.188 81.5776 140.151 83.4666 143.029C83.5126 143.42 83.7737 143.681 84.0118 143.958C84.7566 145.285 85.6934 146.467 86.5841 147.695C87.2214 148.57 87.6898 149.576 88.5729 150.259C88.9261 151.034 89.5327 151.61 90.0932 152.231C90.1316 152.431 90.2852 152.523 90.4465 152.615C90.8074 153.222 91.2297 153.782 91.7518 154.273C92.5811 155.294 93.4488 156.284 93.802 157.604C93.8558 157.819 94.0708 157.903 94.2934 157.834C94.9154 157.658 95.0843 157.75 94.8847 158.31C94.7081 158.786 94.9077 158.909 95.2379 159.016C95.8138 159.201 96.1056 159.653 96.3513 160.152C96.3744 160.198 96.4819 160.26 96.4819 160.267C96.0902 160.889 96.7276 160.858 96.9119 161.15C97.3419 161.818 98.0867 161.902 98.5858 162.133C99.3076 162.463 99.6224 162.862 99.6531 163.499C99.6685 163.798 99.7453 163.829 99.9449 163.867C100.743 164.044 100.767 164.474 100.168 165.218C101.127 164.781 101.473 165.471 101.888 165.847C102.586 166.477 102.686 166.569 103.615 166.423C103.83 166.392 104.214 166.239 104.26 166.692C104.306 167.175 104.114 167.505 103.469 167.574C103.93 167.828 104.514 167.874 104.383 168.611C104.967 167.797 105.804 168.434 106.479 168.104C106.748 167.973 107.201 168.303 106.955 168.802C106.871 168.971 106.894 169.094 107.025 169.194C107.286 169.386 107.286 169.14 107.378 168.994C107.608 168.634 107.792 168.979 107.946 169.079C108.622 169.524 109.144 170.192 109.935 170.468C112.707 172.533 115.632 174.336 118.75 175.848C120.485 176.823 122.259 177.706 124.133 178.381C124.885 178.987 125.845 179.156 126.705 179.517C129.085 180.523 131.504 181.436 133.908 182.388C135.589 183.147 137.317 183.785 139.083 184.306C139.344 184.514 139.628 184.636 139.958 184.644C140.55 184.928 141.156 185.174 141.801 185.304C142.807 185.68 143.798 186.087 144.811 186.417C149.58 187.991 154.34 189.564 159.232 190.715C162.564 191.506 165.866 192.427 169.245 193.026C169.39 193.079 169.529 193.148 169.675 193.179C173.452 193.862 177.223 194.538 181.001 195.221C181.016 195.19 181.024 195.159 181.024 195.121C181.492 194.515 181.607 193.755 181.899 193.064C182.337 191.959 182.767 190.861 183.204 189.756C183.527 188.981 183.865 188.205 184.164 187.415C184.801 185.757 185.293 184.061 185.6 182.311C185.992 180.085 186.299 177.844 186.713 175.626C187.236 172.801 188.003 170.03 188.073 167.122C188.111 165.479 188.211 163.806 188.464 162.194C189.063 158.295 189.854 154.427 189.854 150.458C189.854 150.29 189.785 150.082 190.031 150.006V148.9C189.585 148.609 189.9 148.187 189.846 147.826L189.823 147.872ZM52.2837 72.1707H48.9358V71.9251C50.0645 71.6027 51.1626 72.186 52.2837 72.1707ZM48.3676 81.1738C47.9376 81.1661 47.5152 81.0586 47.0929 81.0663C44.2441 81.1047 41.4261 80.7132 38.608 80.46C36.1816 80.2451 33.7551 79.9994 31.3364 79.6234C28.5874 79.1935 28.5644 79.2626 28.1958 76.5532C27.9655 74.834 27.2974 73.1915 27.2744 71.4415C27.259 70.3593 27.259 70.3977 28.2803 70.6586C31.8432 71.5643 35.1603 73.1915 38.6925 74.1816C41.6872 75.0182 44.7125 75.1487 47.7763 74.8417C48.1219 74.8033 48.5135 74.6882 48.8206 74.9952C49.3735 74.8954 49.9263 74.8417 50.4869 74.7726C49.934 74.8417 49.3735 74.8954 48.8206 75.0028C48.3138 75.2484 48.0451 75.6015 48.2294 76.2079C48.3445 76.5839 48.3369 76.9293 47.8147 77.0445C47.4231 77.1289 47.4845 77.4359 47.6381 77.6892C48.1526 78.4951 48.7208 79.3931 49.5501 79.7308C50.2258 80.0071 50.9399 80.8667 51.8767 80.222C52.0456 80.0992 52.1071 80.3141 52.1455 80.4676C52.2069 80.7363 52.3681 80.8975 52.6599 80.8898L52.8672 81.0356C52.8749 81.1047 52.8903 81.1738 52.898 81.2505C51.3853 81.2352 49.8726 81.2198 48.3599 81.1968L48.3676 81.1738ZM85.4553 144.725C85.7932 145.255 86.1311 145.792 86.4766 146.314C86.1234 145.792 85.7855 145.255 85.4553 144.725ZM111.678 170.453C111.547 170.368 111.424 170.299 111.294 170.261C111.424 170.299 111.555 170.368 111.678 170.453Z" fill="#020202"/>
</g>
<defs>
<clipPath id="clip0_3_6850">
<rect width="190" height="208" fill="white"/>
</clipPath>
</defs>
</svg>
