<svg width="206" height="212" viewBox="0 0 206 212" fill="none" xmlns="http://www.w3.org/2000/svg">
<g clip-path="url(#clip0_3_7696)">
<path d="M95.9027 58.6122C94.6667 57.8866 93.3433 57.4229 91.946 57.1071C89.9441 56.6569 87.9287 56.2538 86.2359 54.8898C83.6898 52.8337 84.1063 49.9444 85.994 47.9219C88.7416 44.9721 92.1945 43.0034 95.802 41.2899C97.5217 40.4769 99.3758 40.3828 101.203 40.1342C105.563 39.5362 109.95 39.1734 114.35 39.2137C117.769 39.2473 121.202 39.2876 124.588 39.899C128.316 40.571 131.957 41.5587 135.443 43.0571C136.868 43.6686 138.393 44.018 139.81 44.663C142.087 45.6978 143.794 47.2567 144.64 49.6622C144.808 50.1392 145.003 50.623 145.251 51.0598C146.131 52.5985 146.031 54.1372 145.305 55.6826C144.875 56.6032 144.425 57.517 143.968 58.4308C143.088 60.198 141.678 61.1992 139.763 61.7434C133.374 63.5509 126.905 63.7726 120.322 63.3493C112.986 62.8857 105.993 60.7826 98.8518 59.3514C98.4555 59.2707 98.0658 59.1699 97.6628 59.217C97.0783 59.0154 96.4872 58.8138 95.9027 58.6122Z" fill="#2A93CF"/>
<path d="M205.335 117.756C204.938 117.399 204.488 117.097 204.025 116.822C201.868 115.545 199.531 114.665 197.227 113.704C192 111.534 186.639 110.707 181.01 111.715C175.374 112.723 169.845 114.147 164.35 115.733C159.95 117.01 155.489 118.078 151.391 120.269C144.909 123.729 138.332 127.015 132.36 131.362C129.129 133.714 125.85 135.998 122.868 138.666C121.511 139.882 120.362 141.313 118.904 142.422C118.857 142.382 118.817 142.335 118.77 142.294C119.992 139.916 121.242 137.544 122.156 135.017C122.27 134.702 122.223 134.325 122.505 134.063C123.163 133.459 123.6 132.666 124.238 132.021C125.024 131.228 125.669 130.3 126.415 129.467C128.074 127.626 129.995 126.014 131.285 123.843C132.622 121.579 134.127 119.429 135.625 117.272C136.27 116.351 136.881 115.404 137.452 114.436C138.54 112.602 139.581 110.741 140.67 108.9C141.933 106.763 143.048 104.552 144.244 102.382C145.386 100.306 145.95 98.0546 146.554 95.797C146.749 95.5349 146.863 95.246 146.863 94.9167C146.863 94.8361 146.87 94.7487 146.877 94.6681C147.065 94.4665 147.105 94.2314 147.052 93.9693C147.072 93.8752 147.092 93.7812 147.105 93.6871C147.327 93.5527 147.28 93.3108 147.314 93.1092C147.831 89.9579 147.71 86.7931 147.508 83.6216C147.394 83.635 147.273 83.7358 147.159 83.6888C147.267 83.7358 147.387 83.635 147.508 83.6216C147.468 83.4738 147.434 83.326 147.394 83.1849C147.643 82.8556 147.582 82.4995 147.468 82.1434C147.468 81.9216 147.455 81.6999 147.455 81.4782C147.676 81.0952 147.334 80.6114 147.69 80.2553C147.878 80.3157 148.032 80.5307 148.341 80.309C147.555 79.16 147.482 77.8497 147.508 76.4925C147.535 74.853 147.488 73.2067 147.28 71.5538C147.199 71.5941 147.105 71.6344 147.011 71.6814C146.393 71.9905 146.138 71.8091 146.239 71.117C146.319 70.5593 146.387 70.0016 146.454 69.4439C146.487 69.1752 146.622 69.0206 146.884 68.9266C148.933 68.1874 150.814 67.0855 152.775 66.1448C155.086 65.0361 156.692 63.1883 158.109 61.1389C158.304 60.8567 158.465 60.5073 158.499 60.178C158.552 59.6674 158.855 59.5532 159.271 59.4322C162.724 58.4579 166.244 58.2899 169.805 58.5117C171.786 58.6326 173.728 58.4445 175.427 57.2619C176.986 56.1801 177.449 55.1386 176.919 53.3177C176.133 50.6031 174.433 48.5604 171.854 47.3913C168.669 45.9466 165.29 45.1873 161.79 45.1605C158.693 45.1336 155.724 45.9332 152.836 46.9612C151.794 47.3308 151.109 47.2434 150.316 46.4371C149.013 45.1201 148.973 45.1941 150.182 43.7024C151.814 41.6799 154.058 40.6249 156.376 39.6574C158.304 38.8511 160.286 38.542 162.355 38.8443C164.343 39.1333 166.338 39.4289 168.333 39.691C170.476 39.9732 172.613 40.0404 174.709 39.3483C176.045 38.9115 176.482 37.8969 175.83 36.6673C175.542 36.123 175.246 35.572 174.816 35.1286C169.227 29.2828 162.429 26.7765 154.374 27.7306C151.653 28.0532 149.228 29.1686 146.87 30.4721C146.595 30.6199 146.326 30.9022 145.916 30.6603C148.368 28.9132 150.8 27.1998 153.212 25.4663C155.274 23.9813 156.954 22.1805 157.813 19.7213C158.049 19.0561 157.954 18.4715 157.504 17.9205C156.94 17.2217 156.255 16.664 155.469 16.2474C153.776 15.347 151.982 14.702 150.128 14.2451C144.008 12.7399 138.903 14.5877 134.745 19.1568C133.3 20.7359 132.165 22.5837 130.956 24.3576C129.035 27.1797 127.993 30.3579 127.133 33.61C126.878 34.5776 126.253 34.0468 125.776 34.0938C125.138 34.161 125.293 33.6638 125.306 33.3211C125.414 31.0701 125.514 28.8192 125.662 26.5682C126.012 21.4481 126.569 16.3549 127.718 11.349C128.06 9.85737 128.571 8.41272 128.793 6.89416C128.914 6.07441 128.893 5.28826 128.235 4.65664C127.523 3.978 126.777 3.85033 125.891 4.31396C123.654 5.48312 121.45 6.71274 119.495 8.32537C117.54 9.938 116.875 12.2494 116.217 14.5609C114.954 18.9889 114.39 23.5513 113.718 28.0868C113.53 29.3634 113.322 30.6401 112.892 31.8764C112.798 31.7824 112.778 31.6883 112.757 31.5942C112.139 28.2951 111.629 24.9892 111.38 21.6363C111.085 17.7055 110.379 13.8083 110.232 9.85737C110.158 7.78783 110.064 5.72501 109.54 3.70923C109.217 2.47288 108.673 1.35076 107.827 0.383183C107.471 -0.0199739 107.108 -0.107324 106.624 0.174885C105.69 0.712428 104.837 1.33732 104.118 2.17051C102.99 3.48749 102.096 4.93885 101.331 6.48429C98.6098 12.0075 96.8699 17.7122 97.535 24.0082C97.938 27.8449 97.7768 31.7353 98.3546 35.5653C98.3881 35.7871 98.4889 36.029 98.106 36.1163C97.6156 36.2305 97.1252 36.3784 96.6751 36.6068C96.1578 36.8689 96.0302 36.674 95.8421 36.2037C94.6665 33.2673 93.7663 30.2302 92.3489 27.3812C89.8028 22.2948 87.5054 17.0873 84.7444 12.115C84.0592 10.8787 83.4277 9.5886 82.1782 8.76212C81.7684 8.48663 81.4795 8.51351 81.1302 8.86291C80.1427 9.84393 79.8203 11.0467 79.827 12.3838C79.827 16.2474 79.8606 20.1177 80.1091 23.9746C80.3442 27.5761 81.0093 31.1239 82.3193 34.497C83.3001 37.0234 84.6167 39.402 85.9737 41.7471C86.3432 42.2913 86.2693 43.353 85.7924 43.6688C85.4094 43.9241 85.1878 43.5277 84.9325 43.3395C84.5899 43.1447 84.2405 42.9498 83.8979 42.7482C80.7943 40.9072 77.3817 39.8925 73.9624 38.8443C67.6208 36.8957 61.1516 36.506 54.6085 37.1914C50.289 37.6416 46.5338 39.3012 43.9004 42.9633C42.7315 44.5893 42.9599 45.3755 44.8812 46.0272C47.3466 46.8604 49.8591 47.5525 52.4253 47.996C55.9655 48.6007 59.5326 49.0644 63.0662 49.7699C67.473 50.6501 71.8194 51.705 75.8366 53.7947C76.5666 54.1755 76.8331 54.7511 76.636 55.5216C76.589 55.703 76.5353 55.8844 76.5151 56.0726C76.0247 60.2184 77.3347 63.6721 80.5122 66.3867C80.8279 66.6554 80.9421 66.8906 80.9085 67.3274C80.6667 70.351 80.6533 73.3882 80.7809 76.4185C80.9556 80.5173 81.2511 84.6094 81.4527 88.7081C81.7415 94.4665 81.5803 100.245 82.635 105.957C83.0179 108.033 83.2194 110.143 83.5553 112.232C84.1263 115.787 85.3423 119.16 86.3969 122.58C86.4507 122.755 86.5515 123.057 86.4843 123.104C85.8461 123.588 86.229 124.179 86.2895 124.717C86.444 126.182 86.6455 127.646 86.8134 129.111C86.9142 129.978 86.8403 130.804 86.2156 131.564C85.7252 130.919 85.2684 130.26 84.7578 129.649C82.0976 126.45 78.6715 124.26 75.0507 122.325C70.3885 119.825 65.5585 117.682 60.6881 115.626C57.9002 114.45 55.2131 112.978 52.2573 112.252C43.1279 110.008 33.9246 108.194 24.4995 107.737C20.5562 107.549 16.6196 107.334 12.683 107.777C10.8961 107.979 9.10916 108.181 7.3088 107.945C6.11304 107.784 4.95087 108.503 3.74839 108.08C3.70808 108.066 3.64091 108.1 3.6006 108.134C2.45858 109 1.31656 109.874 -0.00683594 110.882C3.56029 110.841 6.69749 111.964 9.91529 112.656C11.2521 112.945 12.5218 113.428 13.6772 114.188C14.5237 114.745 15.4037 115.249 16.3442 115.632C17.6609 116.17 19.0783 116.418 20.3278 117.124C22.1349 118.139 24.0763 118.858 26.0043 119.59C28.6108 120.584 31.3516 121.162 33.9581 122.177C38.2844 123.863 42.7181 125.221 47.1585 126.551C48.8514 127.055 50.6182 127.378 52.1834 128.224C55.0855 129.803 58.0279 131.255 61.1113 132.451C65.5316 134.157 69.6294 136.523 73.7944 138.733C76.1658 139.99 78.5372 141.239 80.9354 142.442C81.5199 142.738 81.4997 142.919 81.1369 143.396C79.8807 145.069 78.4297 146.595 77.1533 148.254C74.2512 152.031 71.0805 155.558 67.735 158.938C64.4903 162.224 61.1248 165.389 58.0211 168.809C56.9933 169.937 55.9386 171.039 54.7697 172.034C51.0683 175.179 47.266 178.202 43.3832 181.118C39.5003 184.035 35.5368 186.863 31.2845 189.208C27.7912 191.137 24.1972 192.904 20.61 194.664C18.3461 195.773 16.0486 196.821 13.6101 197.507C12.5218 197.809 12.4344 197.93 12.945 198.938C13.7108 200.443 14.9603 201.505 16.3039 202.452C18.0371 203.668 19.9046 204.723 21.5303 206.067C24.6406 208.634 28.1271 210.455 31.9092 211.758C32.0369 211.799 32.1645 211.846 32.1779 212.014H32.8228C33.0042 211.711 33.3132 211.846 33.5484 211.832C35.8794 211.705 38.2105 211.624 40.4206 210.703C42.5031 209.837 44.7469 209.407 46.7756 208.419C50.0539 206.82 53.3053 205.167 56.5567 203.507C60.0902 201.7 63.7581 200.154 67.0028 197.816C67.9567 197.13 68.998 196.546 70.0325 195.988C72.5449 194.638 74.9029 193.059 77.2742 191.5C79.6523 189.934 81.8826 188.167 84.086 186.366C84.6839 185.876 85.4363 185.56 85.92 184.935C86.8403 183.739 87.9286 182.697 88.9564 181.602C93.5514 176.717 98.1463 171.826 103.01 167.203C104.333 165.946 105.603 164.616 106.584 163.084C107.403 161.807 108.21 160.524 108.915 159.173C109.755 157.581 111.138 156.365 111.81 154.591C112.415 152.985 113.537 151.574 114.403 150.062C114.544 149.82 114.712 149.686 114.934 149.531C116.822 148.268 118.924 147.448 120.94 146.447C121.92 145.956 122.881 145.318 123.963 145.15C127.019 144.673 129.941 143.726 132.891 142.832C134.657 142.294 136.464 141.871 138.231 141.32C140.952 140.473 143.478 139.13 146.178 138.236C150.914 136.67 155.556 134.856 160.131 132.874C162.099 132.021 164.068 131.174 166.224 130.865C167.07 130.744 167.917 130.562 168.75 130.374C171.686 129.716 174.507 128.634 177.416 127.875C181.05 126.927 184.772 126.39 188.426 125.563C191.825 124.797 195.292 124.307 198.637 123.306C200.995 122.6 203.118 121.391 205.167 120.06C206.188 119.395 206.201 118.582 205.281 117.769L205.335 117.756ZM99.1204 59.5666C98.724 59.486 98.3344 59.3852 97.9313 59.4322C97.9515 59.5532 98.0455 59.5935 98.1463 59.6203C98.5964 59.7279 99.0196 59.8958 99.3488 60.252C98.892 60.252 98.4956 60.084 98.106 59.8891C96.5273 59.3986 94.9487 58.9148 93.37 58.4243C92.7788 58.337 92.228 58.1354 91.6905 57.8666C92.2884 57.786 92.8326 57.9741 93.3767 58.169L96.1713 58.8275C94.9352 58.1018 93.6118 57.6382 92.2145 57.3224C90.2126 56.8722 88.1973 56.469 86.5044 55.105C83.9584 53.0489 84.3749 50.1596 86.2626 48.1371C89.0102 45.1873 92.4631 43.2186 96.0705 41.5052C97.7903 40.6921 99.6444 40.5981 101.472 40.3495C105.831 39.7514 110.218 39.3886 114.618 39.4289C118.038 39.4625 121.47 39.5028 124.856 40.1143C128.584 40.7862 132.225 41.7739 135.712 43.2723C137.136 43.8838 138.661 44.2332 140.079 44.8783C142.356 45.913 144.062 47.4719 144.909 49.8774C145.077 50.3545 145.271 50.8382 145.52 51.275C146.4 52.8137 146.299 54.3524 145.574 55.8979C145.144 56.8184 144.694 57.7322 144.237 58.646C143.357 60.4132 141.946 61.4144 140.032 61.9587C133.643 63.7661 127.174 63.9879 120.59 63.5646C113.255 63.1009 106.261 60.9978 99.1204 59.5666Z" fill="black"/>
</g>
<defs>
<clipPath id="clip0_3_7696">
<rect width="206" height="212" fill="white"/>
</clipPath>
</defs>
</svg>
