<svg width="161" height="48" viewBox="0 0 161 48" fill="none" xmlns="http://www.w3.org/2000/svg">
<g clip-path="url(#clip0_3_2363)">
<path d="M24.2715 18.6611H5.2226V23.308H24.2715V18.6611Z" fill="white"/>
<path d="M38.8353 32.7548H44.7157L45.1817 31.1013H41.6036L41.92 29.9923H44.8278L45.2963 28.3388H42.3885L42.68 27.3201H46.1061L46.572 25.6766H40.8337L38.8353 32.7548Z" fill="white"/>
<path d="M36.4084 25.6766H35.4865H33.0222L31.0114 32.7548H33.3237L33.9441 30.5518H35.1077C35.2348 30.5518 35.3594 30.5518 35.4865 30.5393C37.2805 30.4238 38.3295 29.4955 38.7331 28.0578C39.1368 26.6075 38.4292 25.6766 36.4084 25.6766ZM36.5355 28.0703C36.371 28.6424 35.9674 28.8732 35.4865 28.8983H34.425L34.8561 27.3201H35.489H35.5139C36.0072 27.3201 36.7149 27.4079 36.538 28.0703H36.5355Z" fill="white"/>
<path d="M12.7 27.5886C12.7 27.2523 12.4135 27.0491 12.0995 27.0491H10.5123L10.1461 28.3589H11.8454C12.3437 28.3589 12.7025 28.0427 12.7025 27.5886H12.7Z" fill="white"/>
<path d="M9.32129 31.2493H10.8462C11.7058 31.2493 11.8429 30.8052 11.9226 30.6622C11.9849 30.5493 12.0298 30.2181 11.9376 30.0625C11.8454 29.9045 11.8055 29.7213 11.1352 29.7213H9.76232L9.32378 31.2493H9.32129Z" fill="white"/>
<path d="M20.5638 27.6839C20.5638 27.5459 20.5364 27.0591 19.8237 27.0591H18.3237C18.3163 27.0993 17.8877 28.6449 17.8877 28.6449H19.4176C20.2822 28.6449 20.5638 28.0076 20.5638 27.6839Z" fill="white"/>
<path d="M22.1933 26.7505C22.435 27.4054 22.2506 28.0653 22.0065 28.4818C21.7947 28.8406 21.2614 29.4026 20.646 29.5682C20.9649 29.5682 21.3412 29.8242 21.3661 30.3937C21.3736 30.5568 21.4608 32.7749 21.4608 32.7749H19.5447L19.4774 30.7977C19.4575 30.5669 19.5347 30.0299 18.6776 30.0299H17.499L16.744 32.7172H14.6809L16.7191 25.6289H12.2814C12.8894 25.6415 13.7191 25.7895 14.1477 26.3139C14.666 26.9512 14.504 27.7441 14.2972 28.1807C14.2573 28.266 13.9284 28.8431 13.3653 29.1041C13.4151 29.1191 13.8686 29.4102 14.0231 29.8944C14.2424 30.5769 13.9807 31.558 13.4924 31.972C13.1261 32.2806 12.8121 32.7046 11.0106 32.7046H6.85203L8.88275 25.6289H5.21997V37.7831H24.2689V25.6289H20.3121C20.945 25.644 21.8395 25.8071 22.1908 26.748L22.1933 26.7505Z" fill="white"/>
<path d="M67.6466 25.4859C67.2928 25.4859 66.939 25.5236 66.5976 25.6014C64.8659 25.9827 63.4506 27.295 62.9199 29.1542C62.2497 31.573 63.336 32.948 65.5362 32.948C65.9025 32.948 66.2563 32.9104 66.5976 32.8326C68.2671 32.4512 69.7322 31.1791 70.3028 29.1793C70.8335 27.3075 70.1632 25.4884 67.6491 25.4884L67.6466 25.4859ZM67.988 29.1793C67.7363 30.1077 67.2804 30.8479 66.5976 31.1139C66.4207 31.1766 66.2314 31.2167 66.0295 31.2167C64.9307 31.2167 64.9681 30.0826 65.2322 29.1793C65.434 28.4542 65.8775 27.6137 66.5976 27.3201C66.7621 27.2574 66.939 27.2172 67.1408 27.2172C68.1649 27.1921 68.2671 28.2108 67.988 29.1768V29.1793Z" fill="white"/>
<path d="M54.2215 26.6075L54.4881 25.6766H54.2215H48.0272L47.5089 27.5359H49.582L48.1019 32.7548H50.4042L51.8818 27.5359H53.9549L54.2215 26.6075Z" fill="white"/>
<path d="M86.8501 27.8294C86.875 27.7792 86.8875 27.7416 86.9 27.6889C87.052 27.1545 87.0519 26.7204 86.8501 26.4043C86.5461 25.9075 85.7762 25.6791 84.346 25.6791H81.0221L79.0237 32.7573H81.3236L82.0312 30.2884H82.7264C83.155 30.2884 83.4216 30.3385 83.5736 30.454C83.8128 30.6321 83.7754 30.9633 83.6109 31.5228C83.5985 31.573 83.586 31.6132 83.5736 31.6508C83.4216 32.2103 83.3717 32.6193 83.3842 32.7573H85.7239L85.7737 32.5415C85.5071 32.5415 85.6217 32.2354 85.8883 31.3071C86.292 29.8819 85.8883 29.7037 85.2305 29.4227C86.0652 29.2069 86.6084 28.5822 86.8476 27.8319L86.8501 27.8294ZM84.6624 28.0578C84.5353 28.5044 84.1691 28.6951 83.5761 28.7327H82.4648L82.8684 27.3201H83.9423C84.4731 27.3201 84.802 27.561 84.6624 28.0578Z" fill="white"/>
<path d="M102.755 27.7266C102.931 26.4921 102.326 25.4859 100.377 25.4859C98.6084 25.4859 97.1034 26.2362 96.6848 27.7517C95.9149 30.4515 100.173 29.7138 99.8717 30.7952C99.7845 31.1264 99.3409 31.3171 98.7728 31.3171C98.5461 31.3171 98.3168 31.2544 98.1649 31.139C98.0004 31.011 97.9107 30.8328 97.9381 30.5794H95.7255C95.4215 31.8515 96.3185 32.948 98.1773 32.948C100.036 32.948 101.706 32.1451 102.159 30.5041C102.892 27.9323 98.6557 28.5822 98.9597 27.5258C99.022 27.2724 99.2886 27.1194 99.8069 27.1194C100.021 27.1194 100.223 27.157 100.363 27.2473C100.502 27.3351 100.589 27.4882 100.552 27.7316H102.752L102.755 27.7266Z" fill="white"/>
<path d="M91.238 25.6766L91.086 25.9049L86.8501 32.5365L86.7106 32.7523H88.973L89.5038 31.8214H91.8036V32.7523H94.1034L93.5851 25.6741H91.233L91.238 25.6766ZM91.086 30.3486H90.3659L91.086 29.0514L91.7936 27.8043L91.8185 30.3511H91.086V30.3486Z" fill="white"/>
<path d="M59.2646 25.6766H55.9532L54.2215 31.8264L53.9573 32.7573H56.2696L56.9523 30.2884H57.6475C58.0786 30.2884 58.3427 30.3385 58.4947 30.454C58.7339 30.6321 58.6965 30.9633 58.5321 31.5228C58.5196 31.573 58.5072 31.6132 58.4947 31.6508C58.3552 32.2103 58.2929 32.6193 58.3053 32.7573H60.645L60.7073 32.5415C60.4282 32.5415 60.5429 32.2354 60.8095 31.3071C61.2131 29.8819 60.8095 29.7037 60.1517 29.4227C61.0362 29.1944 61.5794 28.5069 61.8211 27.6914C62.1998 26.3164 61.6193 25.6791 59.2671 25.6791L59.2646 25.6766ZM59.5811 28.0578C59.454 28.5044 59.0877 28.6951 58.4947 28.7327H57.3834L57.7871 27.3201H58.861C59.3917 27.3201 59.7206 27.561 59.5811 28.0578Z" fill="white"/>
<path d="M76.3202 25.6766H72.944L70.9457 32.7548H74.3842C74.5362 32.7548 74.6882 32.7548 74.8402 32.7423C76.4324 32.6519 77.6084 32.0799 78.0146 30.6296C78.2289 29.8543 78.0146 29.1919 77.307 28.9987C77.8377 28.7177 78.4581 28.1832 78.6599 27.4581C79.0511 26.0455 77.9025 25.6766 76.3202 25.6766ZM75.9166 30.4514C75.7771 30.9608 75.3609 31.0888 74.8427 31.1013H73.7314L74.0977 29.8041H74.8427C75.5628 29.8041 76.0935 29.8417 75.9166 30.454V30.4514ZM76.3825 27.8922C76.2679 28.2986 75.8767 28.5044 75.4083 28.5044H74.459L74.7879 27.3201H75.5977C76.091 27.3201 76.532 27.3326 76.3825 27.8922Z" fill="white"/>
</g>
<defs>
<clipPath id="clip0_3_2363">
<rect width="161" height="48" fill="white"/>
</clipPath>
</defs>
</svg>
